<svg width="215" height="215" viewBox="0 0 215 215" fill="none" xmlns="http://www.w3.org/2000/svg">
<ellipse opacity="0.1" cx="107.44" cy="208.434" rx="107.44" ry="6.44642" fill="#DD2153"/>
<path fill-rule="evenodd" clip-rule="evenodd" d="M42.4318 35.2862C40.9914 32.5112 37.5741 31.4292 34.799 32.8697C32.024 34.3101 30.9421 37.7274 32.3825 40.5024L37.7478 50.8391C39.1882 53.6141 42.6055 54.696 45.3806 53.2556C48.1556 51.8152 49.2375 48.3979 47.7971 45.6229L42.4318 35.2862ZM36.7789 36.684C37.4473 36.3371 38.2705 36.5977 38.6174 37.2661L43.9827 47.6028C44.3297 48.2712 44.0691 49.0943 43.4007 49.4412C42.7322 49.7882 41.9091 49.5276 41.5622 48.8592L36.1969 38.5225C35.8499 37.8541 36.1105 37.031 36.7789 36.684ZM56.649 59.9944C49.5285 59.9944 43.7562 65.7668 43.7562 72.8873V163.359C43.7562 170.48 49.5285 176.252 56.649 176.252H142.601C149.722 176.252 155.494 170.48 155.494 163.359V149.405C146.502 144.204 140.453 134.482 140.453 123.346C140.453 112.211 146.502 102.489 155.494 97.2878V72.8873C155.494 65.7668 149.722 59.9944 142.601 59.9944H133.784V63.254C133.784 69.1877 128.974 73.998 123.04 73.998H80.5083C74.5746 73.998 69.7643 69.1877 69.7643 63.254V59.9944H56.649ZM159.792 95.2385V72.8873C159.792 63.3932 152.095 55.6968 142.601 55.6968H114.357C112.897 50.1112 107.817 45.9894 101.774 45.9894C95.7312 45.9894 90.651 50.1112 89.1916 55.6968H56.649C47.155 55.6968 39.4586 63.3933 39.4586 72.8873V163.359C39.4586 172.854 47.155 180.55 56.649 180.55H142.601C152.095 180.55 159.792 172.853 159.792 163.359V151.454C163.128 152.731 166.75 153.43 170.536 153.43C187.15 153.43 200.619 139.961 200.619 123.346C200.619 106.732 187.15 93.2632 170.536 93.2632C166.75 93.2632 163.128 93.9623 159.792 95.2385ZM15.642 52.1734C17.0404 49.3769 20.441 48.2436 23.2375 49.642L33.6538 54.8509C36.4503 56.2493 37.5836 59.6499 36.1852 62.4463C34.7868 65.2428 31.3862 66.3761 28.5898 64.9777L18.1734 59.7689C15.3769 58.3704 14.2436 54.9698 15.642 52.1734ZM21.3153 53.4858C20.6417 53.149 19.8226 53.422 19.4858 54.0955C19.149 54.7691 19.422 55.5882 20.0955 55.9251L30.5119 61.1339C31.1855 61.4707 32.0046 61.1978 32.3414 60.5242C32.6782 59.8506 32.4053 59.0315 31.7317 58.6947L21.3153 53.4858ZM89.6219 103.229C89.6219 100.262 92.027 97.8567 94.9939 97.8567H131.524C134.491 97.8567 136.896 100.262 136.896 103.229C136.896 106.196 134.491 108.601 131.524 108.601H94.9939C92.027 108.601 89.6219 106.196 89.6219 103.229ZM94.9939 123.013C92.027 123.013 89.6219 125.418 89.6219 128.385C89.6219 131.352 92.027 133.757 94.9939 133.757H131.524C134.491 133.757 136.896 131.352 136.896 128.385C136.896 125.418 134.491 123.013 131.524 123.013H94.9939ZM93.9195 128.385C93.9195 127.791 94.4005 127.31 94.9939 127.31H131.524C132.117 127.31 132.598 127.791 132.598 128.385C132.598 128.978 132.117 129.459 131.524 129.459H94.9939C94.4005 129.459 93.9195 128.978 93.9195 128.385ZM89.6219 154.689C89.6219 151.722 92.027 149.317 94.9939 149.317H131.524C134.491 149.317 136.896 151.722 136.896 154.689C136.896 157.656 134.491 160.061 131.524 160.061H94.9939C92.027 160.061 89.6219 157.656 89.6219 154.689ZM94.9939 153.614C94.4005 153.614 93.9195 154.095 93.9195 154.689C93.9195 155.282 94.4005 155.763 94.9939 155.763H131.524C132.117 155.763 132.598 155.282 132.598 154.689C132.598 154.095 132.117 153.614 131.524 153.614H94.9939ZM65.6136 101.302C65.6136 97.7421 68.4997 94.8559 72.06 94.8559H75.4685C79.0287 94.8559 81.9149 97.7421 81.9149 101.302V104.711C81.9149 108.271 79.0287 111.157 75.4685 111.157H72.06C68.4997 111.157 65.6136 108.271 65.6136 104.711V101.302ZM72.06 120.012C68.4997 120.012 65.6136 122.898 65.6136 126.458V129.867C65.6136 133.427 68.4997 136.313 72.06 136.313H75.4685C79.0287 136.313 81.9149 133.427 81.9149 129.867V126.458C81.9149 122.898 79.0287 120.012 75.4685 120.012H72.06ZM69.9112 126.458C69.9112 125.272 70.8733 124.31 72.06 124.31H75.4685C76.6552 124.31 77.6173 125.272 77.6173 126.458V129.867C77.6173 131.054 76.6552 132.016 75.4685 132.016H72.06C70.8733 132.016 69.9112 131.054 69.9112 129.867V126.458ZM65.6136 152.762C65.6136 149.202 68.4997 146.316 72.06 146.316H75.4685C79.0287 146.316 81.9149 149.202 81.9149 152.762V156.171C81.9149 159.731 79.0287 162.617 75.4685 162.617H72.06C68.4997 162.617 65.6136 159.731 65.6136 156.171V152.762ZM72.06 150.614C70.8733 150.614 69.9112 151.576 69.9112 152.762V156.171C69.9112 157.358 70.8733 158.32 72.06 158.32H75.4685C76.6552 158.32 77.6173 157.358 77.6173 156.171V152.762C77.6173 151.576 76.6552 150.614 75.4685 150.614H72.06ZM144.75 123.346C144.75 109.105 156.295 97.5608 170.536 97.5608C184.777 97.5608 196.322 109.105 196.322 123.346C196.322 137.588 184.777 149.132 170.536 149.132C156.295 149.132 144.75 137.588 144.75 123.346ZM165.164 109.379C165.164 106.412 167.569 104.007 170.536 104.007C173.503 104.007 175.908 106.412 175.908 109.379V122.272C175.908 125.239 173.503 127.644 170.536 127.644C167.569 127.644 165.164 125.239 165.164 122.272V109.379ZM170.536 108.305C169.942 108.305 169.461 108.786 169.461 109.379V122.272C169.461 122.865 169.942 123.346 170.536 123.346C171.129 123.346 171.61 122.865 171.61 122.272V109.379C171.61 108.786 171.129 108.305 170.536 108.305ZM170.536 142.686C167.569 142.686 165.164 140.281 165.164 137.314C165.164 134.347 167.569 131.942 170.536 131.942C173.503 131.942 175.908 134.347 175.908 137.314C175.908 140.281 173.503 142.686 170.536 142.686ZM169.461 137.314C169.461 137.907 169.942 138.388 170.536 138.388C171.129 138.388 171.61 137.907 171.61 137.314C171.61 136.72 171.129 136.239 170.536 136.239C169.942 136.239 169.461 136.72 169.461 137.314Z" fill="#DD2153"/>
</svg>
