<svg width="273" height="239" viewBox="0 0 273 239" fill="none" xmlns="http://www.w3.org/2000/svg">
<path d="M150.294 14.1338C150.294 14.1338 127.712 64.8169 67.9949 53.2063C8.27755 41.5957 -27.702 123.281 28.7557 153.065C85.2134 182.849 46.0868 217.065 83.7402 234.542C126.536 254.405 142.495 187.985 174.023 194.154C243.606 207.769 286.649 184.418 267.616 152.996C234.208 97.8369 209.95 99.8676 219.808 64.2475C229.666 28.6274 173.994 -26.0554 150.294 14.1338Z" fill="#FFEAEF"/>
<path d="M139.394 129.811C134.147 139.867 132.823 145.211 116.906 155.189C116.783 155.27 116.69 155.39 116.644 155.53C114.101 163.413 109.796 170.614 104.057 176.586C103.979 176.666 103.925 176.765 103.899 176.873C103.873 176.981 103.877 177.094 103.91 177.2C105.692 183.128 107.62 193.817 102.256 202.578C94.3703 215.478 88.5301 207.689 89.7464 204.769C90.7879 202.267 99.6856 196.893 97.6315 183.469C97.6143 183.362 97.5696 183.26 97.502 183.175C97.4343 183.09 97.3458 183.024 97.2451 182.983C97.1444 182.942 97.0348 182.927 96.9268 182.941C96.8189 182.954 96.7162 182.995 96.6288 183.06C90.1795 187.741 82.7773 190.942 74.9494 192.435C74.8625 192.449 74.7796 192.482 74.7062 192.531C74.6328 192.579 74.5706 192.643 74.5237 192.718C74.4767 192.792 74.4462 192.876 74.434 192.963C74.4217 193.05 74.4282 193.139 74.4529 193.224C76.4486 200.369 77.3929 211.536 69.0598 221.805C64.611 227.159 58.7117 219.333 64.6111 213.998C68.2712 210.698 67.9889 201.207 66.2756 193.896C66.2429 193.754 66.1619 193.628 66.0465 193.539C65.931 193.45 65.7883 193.404 65.6428 193.409C65.3022 193.419 64.9515 193.419 64.6111 193.419C52.5701 193.437 40.8637 189.458 31.3277 182.106C31.2404 182.038 31.137 181.994 31.0274 181.978C30.9179 181.961 30.8061 181.974 30.7029 182.014C30.5998 182.055 30.5089 182.121 30.4393 182.207C30.3696 182.293 30.3235 182.396 30.3055 182.505C28.0177 197.613 37.1008 202.841 38.3951 206.716C39.8359 211.048 36.5259 214.903 32.4471 213.813C32.3587 213.786 32.2761 213.743 32.2038 213.686C18.906 203.698 20.0644 182.768 21.5246 172.693C21.538 172.61 21.5336 172.526 21.5118 172.445C21.4899 172.365 21.4511 172.29 21.398 172.225C13.9616 162.656 9.9357 150.876 9.95958 138.757C9.95958 116.532 23.2282 97.4032 42.2793 88.8658C42.2806 88.8659 42.2819 88.8657 42.2831 88.8652C42.2843 88.8647 42.2854 88.864 42.2863 88.8631C42.2872 88.8622 42.2879 88.8611 42.2884 88.86C42.2889 88.8588 42.2891 88.8575 42.2891 88.8562C45.2191 85.1467 48.792 79.9002 49.3373 76.2204C49.3552 76.0958 49.41 75.9793 49.4945 75.8859C49.579 75.7925 49.6894 75.7264 49.8117 75.6961C49.9339 75.6658 50.0624 75.6726 50.1808 75.7157C50.2991 75.7588 50.402 75.8362 50.4761 75.938C51.878 77.8265 54.0489 81.4285 53.5719 85.2251C53.5523 85.3515 53.5427 85.478 53.5232 85.6046C53.4842 85.8189 53.4356 86.0233 53.3869 86.2374C53.3382 86.403 53.2992 86.5684 53.2409 86.734C53.9217 86.1659 54.5713 85.5614 55.1869 84.9232C56.6178 83.4534 58.4286 81.2435 59.2074 78.878C59.2442 78.7518 59.3193 78.6401 59.4222 78.5583C59.5251 78.4765 59.6509 78.4286 59.7822 78.4212C59.9134 78.4138 60.0437 78.4473 60.1552 78.517C60.2667 78.5867 60.3538 78.6893 60.4046 78.8106C60.9104 80.0566 61.5046 81.7991 61.709 83.5805C61.7266 83.7403 61.8033 83.8878 61.9239 83.994C62.0445 84.1002 62.2005 84.1576 62.3612 84.1549C63.1109 84.1257 63.8604 84.1063 64.61 84.1063C94.7976 84.1063 119.271 108.58 119.271 138.758C119.271 139.449 119.261 140.13 119.232 140.812C119.228 140.916 119.249 141.019 119.294 141.113C119.338 141.207 119.405 141.289 119.489 141.351C119.572 141.413 119.669 141.455 119.772 141.471C119.875 141.487 119.98 141.478 120.079 141.444C123.33 140.305 127.429 137.56 129.901 131.028C134.526 118.86 135.012 115.452 133.552 105.961C132.092 96.4693 139.15 96.9567 140.61 100.12C142.069 103.283 145.234 118.616 139.394 129.811Z" fill="#DD2153"/>
<path d="M43.2609 143.551C43.0748 143.551 42.8939 143.489 42.7465 143.375C42.5992 143.262 42.4936 143.102 42.4464 142.922C42.0793 141.319 42.0004 139.663 42.2135 138.032C42.6929 134.488 44.6218 131.882 47.792 130.498C49.8636 129.593 51.8219 129.54 53.6123 130.343C57.2819 131.988 58.8441 136.651 58.9089 136.849C58.9716 137.059 58.9497 137.286 58.8478 137.481C58.7459 137.675 58.5721 137.822 58.3633 137.891C58.1545 137.959 57.9273 137.943 57.73 137.847C57.5327 137.75 57.381 137.58 57.307 137.373C57.2937 137.333 55.9041 133.213 52.9176 131.879C51.5805 131.282 50.0833 131.337 48.4675 132.043C45.8443 133.189 44.3048 135.263 43.8921 138.208C43.7035 139.637 43.7666 141.089 44.0786 142.496C44.1347 142.713 44.1026 142.942 43.9895 143.135C43.8763 143.328 43.6912 143.468 43.4749 143.525C43.405 143.543 43.3331 143.551 43.2609 143.551Z" fill="white"/>
<path d="M68.6758 135.831C68.4992 135.831 68.327 135.775 68.1837 135.672C68.0403 135.568 67.933 135.423 67.8769 135.255C67.4064 133.686 67.2202 132.045 67.3272 130.411C67.5759 126.857 69.3322 124.142 72.4063 122.561C74.4189 121.525 76.3725 121.347 78.2139 122.033C81.9741 123.432 83.8326 127.955 83.9098 128.147C83.9909 128.354 83.987 128.584 83.899 128.788C83.811 128.992 83.646 129.153 83.4399 129.236C83.2338 129.319 83.0033 129.318 82.7984 129.232C82.5935 129.145 82.4309 128.982 82.3459 128.777C82.329 128.737 80.6801 124.745 77.6194 123.611C76.2428 123.1 74.7489 123.251 73.178 124.06C70.6351 125.369 69.2339 127.527 69.0132 130.478C68.9179 131.909 69.0748 133.345 69.4767 134.722C69.5186 134.849 69.5297 134.983 69.5093 135.115C69.489 135.247 69.4376 135.372 69.3595 135.481C69.2814 135.589 69.1787 135.677 69.0599 135.738C68.9411 135.799 68.8096 135.83 68.6761 135.831H68.6758Z" fill="white"/>
<path d="M66.5309 153.469C60.7927 153.469 56.4174 149.649 56.1984 149.456C56.1156 149.382 56.0481 149.293 55.9997 149.193C55.9513 149.094 55.9231 148.986 55.9165 148.875C55.91 148.764 55.9252 148.654 55.9615 148.549C55.9977 148.444 56.0542 148.348 56.1277 148.265C56.2012 148.182 56.2903 148.115 56.3899 148.067C56.4895 148.018 56.5977 147.99 56.7082 147.983C56.8187 147.977 56.9295 147.992 57.0341 148.028C57.1387 148.065 57.2352 148.121 57.318 148.195C57.3755 148.245 63.1533 153.267 69.6585 151.328C76.1334 149.399 77.9091 141.177 77.9265 141.095C77.9737 140.878 78.1046 140.688 78.2906 140.567C78.4766 140.446 78.7029 140.404 78.9202 140.448C79.1376 140.493 79.3285 140.622 79.4516 140.806C79.5748 140.991 79.6201 141.217 79.5779 141.435C79.177 143.138 78.5492 144.779 77.7112 146.315C75.8601 149.727 73.2428 152.02 70.1403 152.944C68.969 153.293 67.7531 153.47 66.5309 153.469Z" fill="white"/>
<path d="M248.27 115.943C248.197 117.773 248.011 119.598 247.712 121.405C243.648 146.269 220.208 163.122 195.344 159.057C170.49 154.995 153.627 131.553 157.692 106.689C157.951 105.104 158.294 103.553 158.699 102.04C140.258 89.517 141.336 65.3682 144.87 62.6909C148.441 59.9799 152.338 62.2643 151.931 69.7635C151.512 80.654 158.217 89.6603 161.936 93.5832C170.642 76.2253 189.885 65.7387 210.06 69.0368C229.64 72.2373 244.246 87.4582 247.591 105.918C251.241 104.591 257.686 100.762 262.908 89.8775C263.637 87.7082 263.839 86.1136 263.878 85.1532C263.904 84.256 264.254 83.3987 264.864 82.7399C266.006 81.5456 268.028 80.2781 270.64 82.2243C271.234 82.6683 271.712 83.2484 272.036 83.9157C272.359 84.583 272.518 85.3182 272.499 86.0595C272.335 91.942 267.628 106.255 248.27 115.943Z" fill="#DD2153"/>
<path d="M221.146 124.007C219.994 131.049 210.309 135.325 199.52 133.562C188.721 131.796 180.902 124.659 182.053 117.617C182.272 116.305 182.785 115.06 183.552 113.975C183.762 113.681 184.077 113.478 184.431 113.409C184.786 113.34 185.153 113.41 185.458 113.604C189.323 116.024 195.442 118.158 202.501 119.312C208.998 120.374 215.01 120.39 219.385 119.56C219.741 119.492 220.11 119.563 220.415 119.759C220.72 119.956 220.938 120.262 221.024 120.614C221.287 121.726 221.329 122.879 221.146 124.007Z" fill="white"/>
<path d="M200.673 110.034C200.551 110.034 200.43 110.008 200.319 109.957C200.208 109.906 200.109 109.831 200.03 109.738C199.951 109.644 199.893 109.535 199.86 109.417C199.827 109.299 199.82 109.176 199.84 109.055C200.123 107.324 199.707 105.551 198.683 104.127C197.659 102.703 196.111 101.744 194.38 101.461C192.648 101.178 190.876 101.594 189.452 102.618C188.028 103.642 187.068 105.19 186.785 106.921C186.749 107.142 186.627 107.339 186.446 107.47C186.264 107.6 186.038 107.653 185.817 107.617C185.597 107.581 185.399 107.459 185.269 107.277C185.138 107.096 185.085 106.87 185.121 106.649C185.477 104.477 186.68 102.534 188.467 101.249C190.255 99.9641 192.479 99.4417 194.652 99.7968C196.824 100.152 198.767 101.356 200.052 103.143C201.337 104.93 201.859 107.155 201.504 109.327C201.472 109.524 201.371 109.704 201.218 109.833C201.066 109.963 200.873 110.034 200.673 110.034Z" fill="white"/>
<path d="M220.897 113.34C220.775 113.34 220.654 113.314 220.543 113.262C220.432 113.211 220.333 113.136 220.254 113.043C220.175 112.95 220.117 112.841 220.084 112.723C220.051 112.605 220.044 112.482 220.064 112.361C220.34 110.633 219.92 108.866 218.896 107.447C217.871 106.029 216.327 105.073 214.6 104.791C212.873 104.509 211.104 104.922 209.682 105.941C208.259 106.96 207.298 108.501 207.01 110.227C206.992 110.337 206.953 110.442 206.895 110.536C206.837 110.631 206.76 110.713 206.67 110.778C206.58 110.843 206.479 110.889 206.371 110.915C206.263 110.94 206.151 110.944 206.041 110.926C205.932 110.908 205.827 110.869 205.732 110.81C205.638 110.752 205.556 110.675 205.492 110.585C205.427 110.495 205.381 110.393 205.356 110.285C205.331 110.177 205.327 110.065 205.345 109.955C205.707 107.788 206.912 105.853 208.698 104.573C210.483 103.294 212.703 102.774 214.872 103.129C217.04 103.483 218.979 104.682 220.264 106.464C221.549 108.246 222.076 110.464 221.728 112.633C221.696 112.831 221.594 113.01 221.442 113.14C221.29 113.269 221.097 113.34 220.897 113.34Z" fill="white"/>
</svg>
