<svg width="168" height="168" viewBox="0 0 168 168" fill="none" xmlns="http://www.w3.org/2000/svg">
<path d="M84 168C130.392 168 168 130.392 168 84C168 37.6081 130.392 0 84 0C37.6081 0 0 37.6081 0 84C0 130.392 37.6081 168 84 168Z" fill="#FFDBE2"/>
<path d="M134.4 168H33.6001V59.36C38.3511 59.3547 42.9061 57.465 46.2656 54.1055C49.6251 50.746 51.5148 46.191 51.5201 41.44H116.48C116.475 43.7936 116.937 46.1247 117.839 48.2986C118.74 50.4726 120.064 52.4461 121.734 54.1049C123.393 55.775 125.366 57.0994 127.541 58.0014C129.715 58.9035 132.046 59.3652 134.4 59.36V168Z" fill="white"/>
<path d="M84.0001 114.24C98.8455 114.24 110.88 102.205 110.88 87.36C110.88 72.5146 98.8455 60.48 84.0001 60.48C69.1547 60.48 57.1201 72.5146 57.1201 87.36C57.1201 102.205 69.1547 114.24 84.0001 114.24Z" fill="#DD2153"/>
<path d="M76.6875 88.2812L82.9375 94.5312L92.3125 80.4688" stroke="white" stroke-width="3.5" stroke-linecap="round" stroke-linejoin="round"/>
<path d="M98.5601 120.96H69.4401C67.5844 120.96 66.0801 122.464 66.0801 124.32C66.0801 126.176 67.5844 127.68 69.4401 127.68H98.5601C100.416 127.68 101.92 126.176 101.92 124.32C101.92 122.464 100.416 120.96 98.5601 120.96Z" fill="#FFDBE2"/>
<path d="M108.64 134.4H59.36C57.5043 134.4 56 135.904 56 137.76C56 139.616 57.5043 141.12 59.36 141.12H108.64C110.496 141.12 112 139.616 112 137.76C112 135.904 110.496 134.4 108.64 134.4Z" fill="#FFDBE2"/>
</svg>
