<svg width="317" height="154" viewBox="0 0 317 154" fill="none" xmlns="http://www.w3.org/2000/svg">
<mask id="mask0_3561_3078" style="mask-type:alpha" maskUnits="userSpaceOnUse" x="29" y="0" width="252" height="141">
<path d="M114.548 93.8V115H101.348V139H78.5477V115H29.3477V92.8L69.3477 1.99999H101.348V93.8H114.548ZM79.3477 93.8V26.4L50.1477 93.8H79.3477ZM174.829 35C174.829 30.6 173.829 27.2667 171.829 25C169.962 22.7333 166.562 21.6 161.629 21.6C156.696 21.6 153.229 22.7333 151.229 25C149.362 27.2667 148.429 30.6 148.429 35V106C148.429 110.4 149.362 113.733 151.229 116C153.229 118.267 156.696 119.4 161.629 119.4C166.562 119.4 169.962 118.267 171.829 116C173.829 113.733 174.829 110.4 174.829 106V35ZM124.429 34.2C124.429 23.6667 127.429 15.3333 133.429 9.19999C139.562 3.06666 148.962 -1.04904e-05 161.629 -1.04904e-05C174.296 -1.04904e-05 183.629 3.06666 189.629 9.19999C195.762 15.3333 198.829 23.6667 198.829 34.2V106.8C198.829 117.333 195.762 125.667 189.629 131.8C183.629 137.933 174.296 141 161.629 141C148.962 141 139.562 137.933 133.429 131.8C127.429 125.667 124.429 117.333 124.429 106.8V34.2ZM239.421 0.799991C253.288 0.799991 263.554 3.59999 270.221 9.19999C277.021 14.6667 280.421 22.4667 280.421 32.6V46.4C280.421 58.8 275.754 66.4667 266.421 69.4C276.021 71.1333 280.821 78.2 280.821 90.6V108.2C280.821 118.333 277.421 126.2 270.621 131.8C263.954 137.4 254.421 140.2 242.021 140.2C229.754 140.2 219.954 138.867 212.621 136.2V113.2C220.754 116.533 228.821 118.2 236.821 118.2C244.954 118.2 250.288 117.133 252.821 115C255.488 112.867 256.821 109.8 256.821 105.8V93.6C256.821 89.3333 255.754 86.2667 253.621 84.4C251.621 82.4 248.154 81.4 243.221 81.4H228.421V59.2H243.021C247.821 59.2 251.221 58.0667 253.221 55.8C255.221 53.5333 256.221 50.2 256.221 45.8V35C256.221 26.8667 250.554 22.8 239.221 22.8C229.754 22.8 221.888 23.9333 215.621 26.2V3.59999C221.888 1.73332 229.821 0.799991 239.421 0.799991Z" fill="white"/>
</mask>
<g mask="url(#mask0_3561_3078)">
<path fill-rule="evenodd" clip-rule="evenodd" d="M276.759 88.9014C286.335 104.694 295.158 116.19 303.032 125.769C305.446 128.705 307.756 131.444 309.963 134.062C314.993 140.028 319.493 145.364 323.486 150.97C331.467 162.173 337.349 174.36 340.578 194.283V221H275.04C272.959 187.542 265.955 170.507 255.024 155.163C250.931 149.419 246.269 143.888 241.183 137.856L241.183 137.856C238.997 135.263 236.732 132.577 234.402 129.742C226.608 120.261 217.907 108.924 208.459 93.3414C189.694 62.3931 183.155 21.0022 180.371 -13.8763C179.348 -26.6916 178.835 -38.5576 178.398 -48.6784L178.398 -48.6791C178.24 -52.317 178.093 -55.7294 177.935 -58.8794C177.814 -61.2893 177.687 -63.5516 177.544 -65.644C195.351 -70.7679 212.663 -73.6137 209.208 -61.0215C205.781 -48.5342 232.725 -64.9698 245.186 -73.1112C245.362 -70.738 245.515 -68.0905 245.661 -65.193C245.816 -62.0867 245.963 -58.7028 246.119 -55.0837L246.119 -55.0828C246.557 -44.9471 247.075 -32.9666 248.104 -20.0718C250.895 14.8927 257.476 57.0984 276.759 88.9014ZM173.612 -64.4809C169.866 -63.3449 166.164 -62.1506 162.696 -61.0215C152.525 -57.7097 143.094 -61.336 135.692 -64.1822C127.72 -67.2477 122.101 -69.4084 120.444 -61.0215C120.011 -58.8314 118.801 -57.531 117.031 -56.9194C117.202 -56.0597 117.353 -55.1212 117.49 -54.1151C118.007 -50.3034 118.343 -45.2677 118.641 -39.338C118.799 -36.188 118.946 -32.7755 119.103 -29.1376L119.103 -29.1369C119.541 -19.0161 120.053 -7.15014 121.076 5.66516C123.861 40.5436 130.4 81.9346 149.165 112.883C158.613 128.465 167.313 139.803 175.107 149.284C177.438 152.119 179.702 154.804 181.888 157.397L181.889 157.398L181.889 157.398C186.974 163.43 191.637 168.961 195.729 174.705C204.298 186.732 210.454 199.799 213.717 221H271.033C268.969 188.275 262.141 172.048 251.766 157.484C247.772 151.878 243.273 146.542 238.242 140.575C236.035 137.958 233.726 135.219 231.312 132.282C223.438 122.704 214.614 111.208 205.039 95.4152C185.756 63.6122 179.175 21.4065 176.383 -13.558C175.354 -26.4531 174.836 -38.434 174.398 -48.5699C174.242 -52.189 174.096 -55.5729 173.94 -58.6792C173.837 -60.7428 173.729 -62.6797 173.612 -64.4809ZM192.471 177.026C200.54 188.352 206.463 200.684 209.669 221L143.174 221C140.376 194.205 133.752 179.185 124.009 165.509C119.917 159.765 115.254 154.234 110.168 148.202L110.168 148.202L110.168 148.201C107.982 145.608 105.717 142.923 103.387 140.088C95.5929 130.607 86.8921 119.27 77.444 103.687C58.6793 72.7386 52.1403 31.3477 49.3557 -3.53082C48.3326 -16.3464 47.8199 -28.2126 47.3826 -38.3336L47.3822 -38.345L47.3813 -38.3648C47.2246 -41.991 47.0776 -45.3929 46.9201 -48.5339C46.8993 -48.9488 46.8783 -49.3592 46.8571 -49.7652C59.5236 -57.3198 71.6241 -77.1954 71.6241 -77.1954C71.6241 -77.1954 99.2661 -57.5972 113.026 -56.5373C113.206 -55.697 113.372 -54.7108 113.526 -53.5771C114.018 -49.9512 114.348 -45.0678 114.646 -39.1377C114.801 -36.0314 114.948 -32.6475 115.104 -29.0284C115.542 -18.8925 116.06 -6.91167 117.089 5.98349C119.88 40.948 126.461 83.1537 145.744 114.957C155.32 130.75 164.143 142.246 172.017 151.824C174.431 154.76 176.741 157.499 178.948 160.117L178.948 160.117C183.978 166.083 188.478 171.42 192.471 177.026ZM120.751 167.83C129.97 180.77 136.388 195.025 139.152 221L58.9113 221C55.6482 199.799 49.4922 186.732 40.9236 174.705C36.8315 168.961 32.1686 163.43 27.0827 157.397L27.0789 157.393C24.894 154.801 22.6311 152.117 20.3018 149.284C12.508 139.803 3.80722 128.465 -5.64093 112.883C-13.2475 100.337 -18.8451 86.0762 -22.998 71.2283V-77.1954C-22.998 -77.1954 10.311 -100.434 24.0467 -61.0215C28.7253 -47.597 35.7365 -45.1942 42.9486 -47.8622C43.0954 -44.8892 43.2346 -41.6685 43.3828 -38.2361L43.3834 -38.2244L43.3835 -38.2225C43.8214 -28.087 44.339 -16.1069 45.3684 -3.21249C48.1599 31.752 54.7407 73.9577 74.0236 105.761C83.5993 121.554 92.4229 133.05 100.297 142.628C102.708 145.561 105.015 148.298 107.221 150.913L107.227 150.921L107.227 150.921C112.258 156.887 116.757 162.224 120.751 167.83ZM-22.998 84.6676L-22.998 221H54.8635C51.658 200.684 45.7346 188.352 37.6658 177.026C33.6722 171.42 29.1729 166.083 24.1427 160.117L24.1423 160.117C21.9351 157.499 19.6256 154.76 17.2119 151.824C9.33798 142.246 0.514374 130.75 -9.06131 114.957C-14.7287 105.61 -19.2988 95.3639 -22.998 84.6676ZM248.996 -75.6374C250.441 -76.6105 251.282 -77.1954 251.282 -77.1954C251.282 -77.1954 291.226 -45.963 295.664 -61.0215C300.102 -76.0799 340.578 -77.1954 340.578 -77.1954L340.578 176.374C337.147 165.241 332.488 156.712 326.744 148.649C322.652 142.905 317.989 137.375 312.903 131.342L312.903 131.342C310.717 128.749 308.453 126.064 306.122 123.228C298.328 113.748 289.628 102.41 280.18 86.8275C261.415 55.8793 254.876 14.4883 252.091 -20.3901C251.068 -33.2057 250.555 -45.0719 250.118 -55.1929C249.961 -58.8308 249.814 -62.2432 249.656 -65.3932C249.464 -69.2071 249.257 -72.6511 248.996 -75.6374Z" fill="url(#paint0_linear_3561_3078)"/>
</g>
<defs>
<linearGradient id="paint0_linear_3561_3078" x1="351.23" y1="-84.2598" x2="-50.8143" y2="203.2" gradientUnits="userSpaceOnUse">
<stop stop-color="#DD2153" stop-opacity="0.69"/>
<stop offset="1" stop-color="#DD2153" stop-opacity="0.53"/>
</linearGradient>
</defs>
</svg>
