<svg width="318" height="155" viewBox="0 0 318 155" fill="none" xmlns="http://www.w3.org/2000/svg">
<mask id="mask0_2868_21022" style="mask-type:alpha" maskUnits="userSpaceOnUse" x="26" y="0" width="266" height="142">
<path d="M111.634 93.9057V115.106H98.4336V139.106H75.6336V115.106H26.4336V92.9057L66.4336 2.10569H98.4336V93.9057H111.634ZM76.4336 93.9057V26.5057L47.2336 93.9057H76.4336ZM171.915 35.1057C171.915 30.7057 170.915 27.3724 168.915 25.1057C167.048 22.839 163.648 21.7057 158.715 21.7057C153.782 21.7057 150.315 22.839 148.315 25.1057C146.448 27.3724 145.515 30.7057 145.515 35.1057V106.106C145.515 110.506 146.448 113.839 148.315 116.106C150.315 118.372 153.782 119.506 158.715 119.506C163.648 119.506 167.048 118.372 168.915 116.106C170.915 113.839 171.915 110.506 171.915 106.106V35.1057ZM121.515 34.3057C121.515 23.7724 124.515 15.439 130.515 9.30569C136.648 3.17235 146.048 0.105687 158.715 0.105687C171.382 0.105687 180.715 3.17235 186.715 9.30569C192.848 15.439 195.915 23.7724 195.915 34.3057V106.906C195.915 117.439 192.848 125.772 186.715 131.906C180.715 138.039 171.382 141.106 158.715 141.106C146.048 141.106 136.648 138.039 130.515 131.906C124.515 125.772 121.515 117.439 121.515 106.906V34.3057ZM291.907 93.9057V115.106H278.707V139.106H255.907V115.106H206.707V92.9057L246.707 2.10569H278.707V93.9057H291.907ZM256.707 93.9057V26.5057L227.507 93.9057H256.707Z" fill="white"/>
</mask>
<g mask="url(#mask0_2868_21022)">
<path fill-rule="evenodd" clip-rule="evenodd" d="M276.97 89.0071C286.546 104.8 295.369 116.296 303.243 125.874C305.657 128.81 307.966 131.55 310.174 134.167C315.204 140.134 319.704 145.47 323.697 151.076C331.678 162.279 337.56 174.466 340.789 194.388V221.106H275.251C273.17 187.648 266.166 170.613 255.234 155.269C251.142 149.525 246.479 143.994 241.394 137.962L241.394 137.962C239.207 135.369 236.943 132.683 234.613 129.848C226.819 120.367 218.118 109.03 208.67 93.4471C189.905 62.4988 183.366 21.1078 180.582 -13.7706C179.559 -26.5859 179.046 -38.4519 178.609 -48.5727L178.609 -48.5734C178.451 -52.2113 178.304 -55.6237 178.146 -58.7737C178.025 -61.1836 177.898 -63.4459 177.755 -65.5383C195.561 -70.6622 212.874 -73.508 209.419 -60.9158C205.992 -48.4285 232.936 -64.8641 245.397 -73.0055C245.573 -70.6323 245.726 -67.9848 245.872 -65.0873C246.027 -61.981 246.174 -58.5971 246.33 -54.978L246.33 -54.9771C246.768 -44.8414 247.285 -32.8609 248.315 -19.9661C251.106 14.9984 257.687 57.2041 276.97 89.0071ZM173.823 -64.3752C170.077 -63.2392 166.374 -62.0449 162.907 -60.9158C152.736 -57.604 143.305 -61.2303 135.903 -64.0765C127.931 -67.142 122.312 -69.3027 120.655 -60.9158C120.222 -58.7257 119.012 -57.4253 117.242 -56.8138C117.413 -55.954 117.564 -55.0155 117.701 -54.0094C118.218 -50.1977 118.554 -45.162 118.852 -39.2323C119.01 -36.0823 119.157 -32.6698 119.314 -29.0319L119.314 -29.0312C119.751 -18.9104 120.264 -7.04444 121.287 5.77086C124.072 40.6493 130.611 82.0403 149.376 112.989C158.824 128.571 167.524 139.909 175.318 149.389C177.649 152.224 179.913 154.91 182.099 157.503L182.1 157.504L182.1 157.504C187.185 163.536 191.848 169.066 195.94 174.81C204.509 186.838 210.665 199.905 213.928 221.106H271.244C269.18 188.381 262.352 172.153 251.977 157.59C247.983 151.984 243.483 146.647 238.453 140.681C236.246 138.063 233.936 135.324 231.523 132.388C223.649 122.81 214.825 111.314 205.25 95.5209C185.967 63.7179 179.386 21.5122 176.594 -13.4523C175.565 -26.3475 175.047 -38.3283 174.609 -48.4642C174.453 -52.0833 174.307 -55.4672 174.151 -58.5735C174.048 -60.6371 173.94 -62.574 173.823 -64.3752ZM192.682 177.131C200.751 188.457 206.674 200.79 209.88 221.106H143.385C140.586 194.311 133.963 179.291 124.219 165.614C120.128 159.87 115.465 154.34 110.379 148.308L110.379 148.308L110.379 148.307C108.193 145.714 105.928 143.029 103.598 140.193C95.8039 130.713 87.1031 119.375 77.6549 103.793C58.8903 72.8443 52.3512 31.4534 49.5667 -3.42512C48.5435 -16.2407 48.0309 -28.1069 47.5936 -38.2279L47.5931 -38.2393L47.5923 -38.2591C47.4355 -41.8853 47.2885 -45.2872 47.131 -48.4282C47.1103 -48.8431 47.0892 -49.2535 47.068 -49.6595C59.7345 -57.2141 71.835 -77.0897 71.835 -77.0897C71.835 -77.0897 99.477 -57.4915 113.237 -56.4316C113.417 -55.5913 113.583 -54.6052 113.737 -53.4714C114.229 -49.8455 114.559 -44.9621 114.857 -39.032C115.012 -35.9257 115.159 -32.5418 115.315 -28.9227C115.753 -18.7868 116.27 -6.80597 117.3 6.08919C120.091 41.0537 126.672 83.2594 145.955 115.062C155.531 130.855 164.354 142.351 172.228 151.93C174.642 154.866 176.951 157.605 179.159 160.223L179.159 160.223C184.189 166.189 188.689 171.525 192.682 177.131ZM120.962 167.935C130.181 180.876 136.599 195.131 139.363 221.106L59.1222 221.106C55.8591 199.905 49.7031 186.838 41.1346 174.81C37.0424 169.066 32.3795 163.535 27.2936 157.503L27.2898 157.498C25.1049 154.907 22.842 152.223 20.5128 149.389C12.7189 139.909 4.01816 128.571 -5.42999 112.989C-13.0365 100.443 -18.6342 86.1819 -22.7871 71.334V-77.0897C-22.7871 -77.0897 10.522 -100.328 24.2577 -60.9158C28.9362 -47.4913 35.9475 -45.0885 43.1595 -47.7565C43.3064 -44.7835 43.4455 -41.5628 43.5938 -38.1304L43.5943 -38.1187L43.5944 -38.1168C44.0323 -27.9813 44.5499 -16.0012 45.5794 -3.10679C48.3708 31.8577 54.9516 74.0634 74.2346 105.866C83.8102 121.659 92.6338 133.155 100.508 142.734C102.919 145.667 105.226 148.403 107.432 151.019L107.438 151.026L107.438 151.027C112.469 156.993 116.968 162.329 120.962 167.935ZM-22.7871 84.7733L-22.7871 221.106H55.0745C51.8689 200.79 45.9455 188.457 37.8767 177.131C33.8832 171.525 29.3839 166.189 24.3536 160.223L24.3532 160.223C22.146 157.605 19.8366 154.866 17.4228 151.93C9.54892 142.351 0.725311 130.855 -8.85037 115.062C-14.5177 105.715 -19.0879 95.4696 -22.7871 84.7733ZM249.207 -75.5317C250.652 -76.5048 251.493 -77.0897 251.493 -77.0897C251.493 -77.0897 291.436 -45.8573 295.875 -60.9158C300.313 -75.9742 340.789 -77.0897 340.789 -77.0897L340.789 176.479C337.358 165.346 332.699 156.817 326.955 148.755C322.863 143.011 318.2 137.48 313.114 131.448L313.114 131.448C310.928 128.855 308.664 126.169 306.333 123.334C298.539 113.853 289.839 102.516 280.39 86.9332C261.626 55.985 255.087 14.594 252.302 -20.2844C251.279 -33.1 250.766 -44.9662 250.329 -55.0872C250.172 -58.7251 250.024 -62.1375 249.867 -65.2875C249.675 -69.1014 249.468 -72.5454 249.207 -75.5317Z" fill="url(#paint0_linear_2868_21022)"/>
</g>
<defs>
<linearGradient id="paint0_linear_2868_21022" x1="351.441" y1="-84.1541" x2="-50.6033" y2="203.306" gradientUnits="userSpaceOnUse">
<stop stop-color="#DD2153" stop-opacity="0.69"/>
<stop offset="1" stop-color="#DD2153" stop-opacity="0.53"/>
</linearGradient>
</defs>
</svg>
