<svg width="266" height="142" viewBox="0 0 266 142" fill="none" xmlns="http://www.w3.org/2000/svg">
<path fill-rule="evenodd" clip-rule="evenodd" d="M250.97 89.0071C260.546 104.8 269.369 116.296 277.243 125.874C279.657 128.81 281.966 131.55 284.174 134.167C289.204 140.134 293.704 145.47 297.697 151.076C305.678 162.279 311.56 174.466 314.789 194.388V221.106H249.251C247.17 187.648 240.166 170.613 229.234 155.269C225.142 149.525 220.479 143.994 215.394 137.962L215.394 137.962C213.207 135.369 210.943 132.683 208.613 129.848C200.819 120.367 192.118 109.03 182.67 93.4471C163.905 62.4988 157.366 21.1078 154.582 -13.7706C153.559 -26.5859 153.046 -38.4519 152.609 -48.5727L152.609 -48.5734C152.451 -52.2113 152.304 -55.6237 152.146 -58.7737C152.025 -61.1836 151.898 -63.4459 151.755 -65.5383C169.561 -70.6622 186.874 -73.508 183.419 -60.9158C179.992 -48.4285 206.936 -64.8641 219.397 -73.0055C219.573 -70.6323 219.726 -67.9848 219.872 -65.0873C220.027 -61.981 220.174 -58.5971 220.33 -54.978L220.33 -54.9771C220.768 -44.8414 221.285 -32.8609 222.315 -19.9661C225.106 14.9984 231.687 57.2041 250.97 89.0071ZM147.823 -64.3752C144.077 -63.2392 140.374 -62.0449 136.907 -60.9158C126.736 -57.604 117.305 -61.2303 109.903 -64.0765C101.931 -67.142 96.3121 -69.3027 94.6551 -60.9158C94.2224 -58.7257 93.0118 -57.4253 91.2419 -56.8138C91.4128 -55.954 91.5642 -55.0155 91.7008 -54.0094C92.2182 -50.1977 92.5544 -45.162 92.8516 -39.2323C93.0095 -36.0823 93.157 -32.6698 93.3141 -29.0319L93.3142 -29.0312C93.7514 -18.9104 94.2641 -7.04444 95.2872 5.77086C98.0718 40.6493 104.611 82.0403 123.376 112.989C132.824 128.571 141.524 139.909 149.318 149.389C151.649 152.224 153.913 154.91 156.099 157.503L156.1 157.504L156.1 157.504C161.185 163.536 165.848 169.066 169.94 174.81C178.509 186.838 184.665 199.905 187.928 221.106H245.244C243.18 188.381 236.352 172.153 225.977 157.59C221.983 151.984 217.483 146.647 212.453 140.681C210.246 138.063 207.936 135.324 205.523 132.388C197.649 122.81 188.825 111.314 179.25 95.5209C159.967 63.7179 153.386 21.5122 150.594 -13.4523C149.565 -26.3475 149.047 -38.3283 148.609 -48.4642C148.453 -52.0833 148.307 -55.4672 148.151 -58.5735C148.048 -60.6371 147.94 -62.574 147.823 -64.3752ZM166.682 177.131C174.751 188.457 180.674 200.79 183.88 221.106H117.385C114.586 194.311 107.963 179.291 98.2195 165.614C94.1275 159.87 89.4648 154.34 84.3792 148.308L84.3791 148.308L84.3786 148.307C82.1925 145.714 79.9283 143.029 77.5977 140.193C69.8039 130.713 61.1031 119.375 51.6549 103.793C32.8903 72.8443 26.3512 31.4534 23.5667 -3.42512C22.5435 -16.2407 22.0309 -28.1069 21.5936 -38.2279L21.5931 -38.2393L21.5923 -38.2591C21.4355 -41.8853 21.2885 -45.2872 21.131 -48.4282C21.1103 -48.8431 21.0892 -49.2535 21.068 -49.6595C33.7345 -57.2141 45.835 -77.0897 45.835 -77.0897C45.835 -77.0897 73.477 -57.4915 87.2366 -56.4316C87.4166 -55.5913 87.5832 -54.6052 87.7371 -53.4714C88.2293 -49.8455 88.5594 -44.9621 88.8566 -39.032C89.0123 -35.9257 89.1585 -32.5418 89.3149 -28.9227C89.7528 -18.7868 90.2704 -6.80597 91.2999 6.08919C94.0913 41.0537 100.672 83.2594 119.955 115.062C129.531 130.855 138.354 142.351 146.228 151.93C148.642 154.866 150.951 157.605 153.159 160.223L153.159 160.223C158.189 166.189 162.689 171.525 166.682 177.131ZM94.9617 167.935C104.181 180.876 110.599 195.131 113.363 221.106L33.1222 221.106C29.8591 199.905 23.7031 186.838 15.1346 174.81C11.0424 169.066 6.37955 163.535 1.29364 157.503L1.28979 157.498C-0.895081 154.907 -3.15799 152.223 -5.48724 149.389C-13.2811 139.909 -21.9818 128.571 -31.43 112.989C-39.0365 100.443 -44.6342 86.1819 -48.7871 71.334V-77.0897C-48.7871 -77.0897 -15.478 -100.328 -1.74234 -60.9158C2.93625 -47.4913 9.94748 -45.0885 17.1595 -47.7565C17.3064 -44.7835 17.4455 -41.5628 17.5938 -38.1304L17.5943 -38.1187L17.5944 -38.1168C18.0323 -27.9813 18.5499 -16.0012 19.5794 -3.10679C22.3708 31.8577 28.9516 74.0634 48.2346 105.866C57.8102 121.659 66.6338 133.155 74.5077 142.734C76.9191 145.667 79.2264 148.403 81.4316 151.019L81.4378 151.026L81.4381 151.027C86.4685 156.993 90.968 162.329 94.9617 167.935ZM-48.7871 84.7733L-48.7871 221.106H29.0745C25.8689 200.79 19.9455 188.457 11.8767 177.131C7.88318 171.525 3.38385 166.189 -1.64639 160.223L-1.64676 160.223C-3.854 157.605 -6.16342 154.866 -8.57718 151.93C-16.4511 142.351 -25.2747 130.855 -34.8504 115.062C-40.5177 105.715 -45.0879 95.4696 -48.7871 84.7733ZM223.207 -75.5317C224.652 -76.5048 225.493 -77.0897 225.493 -77.0897C225.493 -77.0897 265.436 -45.8573 269.875 -60.9158C274.313 -75.9742 314.789 -77.0897 314.789 -77.0897L314.789 176.479C311.358 165.346 306.699 156.817 300.955 148.755C296.863 143.011 292.2 137.48 287.114 131.448L287.114 131.448C284.928 128.855 282.664 126.169 280.333 123.334C272.539 113.853 263.839 102.516 254.39 86.9332C235.626 55.985 229.087 14.594 226.302 -20.2844C225.279 -33.1 224.766 -44.9662 224.329 -55.0872C224.172 -58.7251 224.024 -62.1375 223.867 -65.2875C223.675 -69.1014 223.468 -72.5454 223.207 -75.5317Z" fill="url(#paint0_linear_2868_21018)"/>
<defs>
<linearGradient id="paint0_linear_2868_21018" x1="325.441" y1="-84.1541" x2="-76.6033" y2="203.306" gradientUnits="userSpaceOnUse">
<stop stop-color="#DD2153" stop-opacity="0.69"/>
<stop offset="1" stop-color="#DD2153" stop-opacity="0.53"/>
</linearGradient>
</defs>
</svg>
