<svg width="217" height="198" viewBox="0 0 217 198" fill="none" xmlns="http://www.w3.org/2000/svg">
<rect x="2" y="39.3475" width="57.8571" height="39.9014" rx="4" stroke="#FDEBF0" stroke-width="3.00068" stroke-linecap="round"/>
<path d="M11.1113 61.2147H42.0899M11.1113 70.3261H27.5394" stroke="#FDEBF0" stroke-width="3.00068" stroke-linecap="round"/>
<rect x="9.97949" y="45.3327" width="10.9729" height="10.9729" rx="2" fill="#FDEBF0"/>
<rect x="16.5781" y="139.572" width="57.8571" height="39.9014" rx="4" stroke="#FDEBF0" stroke-width="3.00068" stroke-linecap="round"/>
<path d="M25.6895 161.44H56.6681M25.6895 170.551H42.1175" stroke="#FDEBF0" stroke-width="3.00068" stroke-linecap="round"/>
<rect x="24.5576" y="145.558" width="10.9729" height="10.9729" rx="2" fill="#FDEBF0"/>
<rect x="156.893" y="59.3925" width="57.8571" height="39.9014" rx="4" stroke="#FDEBF0" stroke-width="3.00068" stroke-linecap="round"/>
<path d="M166.004 81.2597H196.983M166.004 90.3711H182.432" stroke="#FDEBF0" stroke-width="3.00068" stroke-linecap="round"/>
<rect x="164.872" y="65.3777" width="10.9729" height="10.9729" rx="2" fill="#FDEBF0"/>
<rect x="78.5361" y="81.2597" width="57.8571" height="39.9014" rx="4" stroke="#DD2153" stroke-width="3.00068" stroke-linecap="round"/>
<path d="M87.5146 103.206H118.438M87.5146 110.188H103.914" stroke="#DD2153" stroke-width="3.00068" stroke-linecap="round"/>
<rect x="86.5156" y="87.2449" width="10.9729" height="10.9729" rx="2" fill="#DD2153"/>
<path d="M158.246 49.8123C148.954 40.5202 137.758 34.2921 125.914 31.1281C106.699 25.9951 85.7785 28.9262 68.5123 39.9213M35.8225 90.371C34.0885 102.266 35.3278 114.511 39.5403 125.905M92.2018 171.422C110.391 175.275 129.781 172.045 145.959 161.733M168.691 138.661C174.246 129.651 177.636 119.683 178.861 109.505" stroke="#FCE9EE" stroke-width="3" stroke-linecap="round"/>
<path fill-rule="evenodd" clip-rule="evenodd" d="M147.133 62.3858C125.599 40.9912 90.6848 40.9912 69.1506 62.3858C47.6165 83.7804 47.6165 118.468 69.1506 139.862C89.1085 159.691 120.559 161.142 142.199 144.217L172.571 174.392C175.186 176.989 179.425 176.989 182.039 174.392C184.654 171.794 184.654 167.583 182.039 164.985L151.649 134.792C168.544 113.297 167.039 82.1624 147.133 62.3858ZM78.1919 71.3684C94.7327 54.9348 121.551 54.9348 138.092 71.3684C154.632 87.802 154.632 114.446 138.092 130.88C121.551 147.313 94.7327 147.313 78.1919 130.88C61.651 114.446 61.651 87.802 78.1919 71.3684Z" fill="#DD2153"/>
</svg>
