<svg width="215" height="215" viewBox="0 0 215 215" fill="none" xmlns="http://www.w3.org/2000/svg">
<ellipse opacity="0.1" cx="107.44" cy="208.434" rx="107.44" ry="6.44642" fill="#DD2153"/>
<path fill-rule="evenodd" clip-rule="evenodd" d="M42.4328 35.2864C40.9924 32.5114 37.5751 31.4294 34.8 32.8698C32.025 34.3102 30.943 37.7276 32.3834 40.5026L37.7488 50.8392C39.1892 53.6143 42.6065 54.6962 45.3815 53.2558C48.1566 51.8154 49.2385 48.3981 47.7981 45.623L42.4328 35.2864ZM36.7799 36.6842C37.4483 36.3373 38.2714 36.5979 38.6184 37.2663L43.9837 47.6029C44.3307 48.2714 44.0701 49.0945 43.4016 49.4414C42.7332 49.7884 41.9101 49.5278 41.5632 48.8594L36.1978 38.5227C35.8509 37.8543 36.1115 37.0312 36.7799 36.6842ZM56.65 59.9946C49.5295 59.9946 43.7572 65.7669 43.7572 72.8875V163.36C43.7572 170.48 49.5295 176.252 56.65 176.252H142.602C149.723 176.252 155.495 170.48 155.495 163.36V149.405C146.503 144.204 140.453 134.482 140.453 123.347C140.453 112.212 146.503 102.49 155.495 97.288V72.8875C155.495 65.7669 149.723 59.9946 142.602 59.9946H133.785V63.2541C133.785 69.1879 128.975 73.9982 123.041 73.9982H80.5093C74.5756 73.9982 69.7653 69.1879 69.7653 63.2541V59.9946H56.65ZM159.793 95.2387V72.8875C159.793 63.3934 152.096 55.697 142.602 55.697H114.358C112.898 50.1114 107.818 45.9896 101.775 45.9896C95.7322 45.9896 90.652 50.1114 89.1926 55.697H56.65C47.156 55.697 39.4595 63.3934 39.4595 72.8875V163.36C39.4595 172.854 47.156 180.55 56.65 180.55H142.602C152.096 180.55 159.793 172.854 159.793 163.36V151.455C163.129 152.731 166.751 153.43 170.537 153.43C187.151 153.43 200.62 139.961 200.62 123.347C200.62 106.732 187.151 93.2633 170.537 93.2633C166.751 93.2633 163.129 93.9625 159.793 95.2387ZM15.643 52.1736C17.0414 49.3771 20.442 48.2438 23.2384 49.6422L33.6548 54.851C36.4513 56.2495 37.5846 59.6501 36.1862 62.4465C34.7878 65.243 31.3872 66.3763 28.5907 64.9779L18.1744 59.769C15.3779 58.3706 14.2446 54.97 15.643 52.1736ZM21.3163 53.486C20.6427 53.1492 19.8236 53.4221 19.4868 54.0957C19.15 54.7693 19.4229 55.5884 20.0965 55.9252L30.5129 61.1341C31.1865 61.4709 32.0056 61.1979 32.3424 60.5244C32.6792 59.8508 32.4062 59.0317 31.7327 58.6949L21.3163 53.486ZM89.6229 103.229C89.6229 100.262 92.028 97.8568 94.9949 97.8568H131.525C134.491 97.8568 136.897 100.262 136.897 103.229C136.897 106.196 134.491 108.601 131.525 108.601H94.9949C92.028 108.601 89.6229 106.196 89.6229 103.229ZM94.9949 123.013C92.028 123.013 89.6229 125.418 89.6229 128.385C89.6229 131.352 92.028 133.757 94.9949 133.757H131.525C134.491 133.757 136.897 131.352 136.897 128.385C136.897 125.418 134.491 123.013 131.525 123.013H94.9949ZM93.9205 128.385C93.9205 127.792 94.4015 127.311 94.9949 127.311H131.525C132.118 127.311 132.599 127.792 132.599 128.385C132.599 128.978 132.118 129.459 131.525 129.459H94.9949C94.4015 129.459 93.9205 128.978 93.9205 128.385ZM89.6229 154.689C89.6229 151.722 92.028 149.317 94.9949 149.317H131.525C134.491 149.317 136.897 151.722 136.897 154.689C136.897 157.656 134.491 160.061 131.525 160.061H94.9949C92.028 160.061 89.6229 157.656 89.6229 154.689ZM94.9949 153.615C94.4015 153.615 93.9205 154.096 93.9205 154.689C93.9205 155.282 94.4015 155.763 94.9949 155.763H131.525C132.118 155.763 132.599 155.282 132.599 154.689C132.599 154.096 132.118 153.615 131.525 153.615H94.9949ZM65.6146 101.302C65.6146 97.7422 68.5007 94.8561 72.061 94.8561H75.4694C79.0297 94.8561 81.9159 97.7422 81.9159 101.302V104.711C81.9159 108.271 79.0297 111.157 75.4694 111.157H72.061C68.5007 111.157 65.6146 108.271 65.6146 104.711V101.302ZM72.061 120.012C68.5007 120.012 65.6146 122.898 65.6146 126.459V129.867C65.6146 133.427 68.5007 136.314 72.061 136.314H75.4694C79.0297 136.314 81.9159 133.427 81.9159 129.867V126.459C81.9159 122.898 79.0297 120.012 75.4694 120.012H72.061ZM69.9122 126.459C69.9122 125.272 70.8742 124.31 72.061 124.31H75.4694C76.6562 124.31 77.6182 125.272 77.6182 126.459V129.867C77.6182 131.054 76.6562 132.016 75.4694 132.016H72.061C70.8742 132.016 69.9122 131.054 69.9122 129.867V126.459ZM65.6146 152.763C65.6146 149.202 68.5007 146.316 72.061 146.316H75.4694C79.0297 146.316 81.9159 149.202 81.9159 152.763V156.171C81.9159 159.731 79.0297 162.618 75.4694 162.618H72.061C68.5007 162.618 65.6146 159.731 65.6146 156.171V152.763ZM72.061 150.614C70.8742 150.614 69.9122 151.576 69.9122 152.763V156.171C69.9122 157.358 70.8742 158.32 72.061 158.32H75.4694C76.6562 158.32 77.6182 157.358 77.6182 156.171V152.763C77.6182 151.576 76.6562 150.614 75.4694 150.614H72.061ZM144.751 123.347C144.751 109.106 156.296 97.561 170.537 97.561C184.778 97.561 196.322 109.106 196.322 123.347C196.322 137.588 184.778 149.132 170.537 149.132C156.296 149.132 144.751 137.588 144.751 123.347ZM165.165 109.379C165.165 106.413 167.57 104.007 170.537 104.007C173.504 104.007 175.909 106.413 175.909 109.379V122.272C175.909 125.239 173.504 127.644 170.537 127.644C167.57 127.644 165.165 125.239 165.165 122.272V109.379ZM170.537 108.305C169.943 108.305 169.462 108.786 169.462 109.379V122.272C169.462 122.866 169.943 123.347 170.537 123.347C171.13 123.347 171.611 122.866 171.611 122.272V109.379C171.611 108.786 171.13 108.305 170.537 108.305ZM170.537 142.686C167.57 142.686 165.165 140.281 165.165 137.314C165.165 134.347 167.57 131.942 170.537 131.942C173.504 131.942 175.909 134.347 175.909 137.314C175.909 140.281 173.504 142.686 170.537 142.686ZM169.462 137.314C169.462 137.907 169.943 138.388 170.537 138.388C171.13 138.388 171.611 137.907 171.611 137.314C171.611 136.721 171.13 136.24 170.537 136.24C169.943 136.24 169.462 136.721 169.462 137.314Z" fill="#DD2153"/>
</svg>
