<svg width="215" height="215" viewBox="0 0 215 215" fill="none" xmlns="http://www.w3.org/2000/svg">
<ellipse opacity="0.1" cx="107.44" cy="208.434" rx="107.44" ry="6.44642" fill="#1571B3"/>
<path fill-rule="evenodd" clip-rule="evenodd" d="M42.4328 35.2862C40.9924 32.5112 37.5751 31.4292 34.8 32.8697C32.025 34.3101 30.943 37.7274 32.3834 40.5024L37.7488 50.8391C39.1892 53.6141 42.6065 54.696 45.3815 53.2556C48.1566 51.8152 49.2385 48.3979 47.7981 45.6229L42.4328 35.2862ZM36.7799 36.684C37.4483 36.3371 38.2714 36.5977 38.6184 37.2661L43.9837 47.6028C44.3307 48.2712 44.0701 49.0943 43.4016 49.4412C42.7332 49.7882 41.9101 49.5276 41.5632 48.8592L36.1978 38.5225C35.8509 37.8541 36.1115 37.031 36.7799 36.684ZM56.65 59.9944C49.5295 59.9944 43.7572 65.7668 43.7572 72.8873V163.359C43.7572 170.48 49.5295 176.252 56.65 176.252H142.602C149.723 176.252 155.495 170.48 155.495 163.359V149.405C146.503 144.204 140.453 134.482 140.453 123.346C140.453 112.211 146.503 102.489 155.495 97.2878V72.8873C155.495 65.7668 149.723 59.9944 142.602 59.9944H133.785V63.254C133.785 69.1877 128.975 73.998 123.041 73.998H80.5093C74.5756 73.998 69.7653 69.1877 69.7653 63.254V59.9944H56.65ZM159.793 95.2385V72.8873C159.793 63.3932 152.096 55.6968 142.602 55.6968H114.358C112.898 50.1112 107.818 45.9894 101.775 45.9894C95.7322 45.9894 90.652 50.1112 89.1926 55.6968H56.65C47.156 55.6968 39.4595 63.3933 39.4595 72.8873V163.359C39.4595 172.854 47.156 180.55 56.65 180.55H142.602C152.096 180.55 159.793 172.853 159.793 163.359V151.454C163.129 152.731 166.751 153.43 170.537 153.43C187.151 153.43 200.62 139.961 200.62 123.346C200.62 106.732 187.151 93.2632 170.537 93.2632C166.751 93.2632 163.129 93.9623 159.793 95.2385ZM15.643 52.1734C17.0414 49.3769 20.442 48.2436 23.2384 49.642L33.6548 54.8509C36.4513 56.2493 37.5846 59.6499 36.1862 62.4463C34.7878 65.2428 31.3872 66.3761 28.5907 64.9777L18.1744 59.7689C15.3779 58.3704 14.2446 54.9698 15.643 52.1734ZM21.3163 53.4858C20.6427 53.149 19.8236 53.422 19.4868 54.0955C19.15 54.7691 19.4229 55.5882 20.0965 55.9251L30.5129 61.1339C31.1865 61.4707 32.0056 61.1978 32.3424 60.5242C32.6792 59.8506 32.4062 59.0315 31.7327 58.6947L21.3163 53.4858ZM89.6229 103.229C89.6229 100.262 92.028 97.8567 94.9949 97.8567H131.525C134.491 97.8567 136.897 100.262 136.897 103.229C136.897 106.196 134.491 108.601 131.525 108.601H94.9949C92.028 108.601 89.6229 106.196 89.6229 103.229ZM94.9949 123.013C92.028 123.013 89.6229 125.418 89.6229 128.385C89.6229 131.352 92.028 133.757 94.9949 133.757H131.525C134.491 133.757 136.897 131.352 136.897 128.385C136.897 125.418 134.491 123.013 131.525 123.013H94.9949ZM93.9205 128.385C93.9205 127.791 94.4015 127.31 94.9949 127.31H131.525C132.118 127.31 132.599 127.791 132.599 128.385C132.599 128.978 132.118 129.459 131.525 129.459H94.9949C94.4015 129.459 93.9205 128.978 93.9205 128.385ZM89.6229 154.689C89.6229 151.722 92.028 149.317 94.9949 149.317H131.525C134.491 149.317 136.897 151.722 136.897 154.689C136.897 157.656 134.491 160.061 131.525 160.061H94.9949C92.028 160.061 89.6229 157.656 89.6229 154.689ZM94.9949 153.614C94.4015 153.614 93.9205 154.095 93.9205 154.689C93.9205 155.282 94.4015 155.763 94.9949 155.763H131.525C132.118 155.763 132.599 155.282 132.599 154.689C132.599 154.095 132.118 153.614 131.525 153.614H94.9949ZM65.6146 101.302C65.6146 97.7421 68.5007 94.8559 72.061 94.8559H75.4694C79.0297 94.8559 81.9159 97.7421 81.9159 101.302V104.711C81.9159 108.271 79.0297 111.157 75.4694 111.157H72.061C68.5007 111.157 65.6146 108.271 65.6146 104.711V101.302ZM72.061 120.012C68.5007 120.012 65.6146 122.898 65.6146 126.458V129.867C65.6146 133.427 68.5007 136.313 72.061 136.313H75.4694C79.0297 136.313 81.9159 133.427 81.9159 129.867V126.458C81.9159 122.898 79.0297 120.012 75.4694 120.012H72.061ZM69.9122 126.458C69.9122 125.272 70.8742 124.31 72.061 124.31H75.4694C76.6562 124.31 77.6182 125.272 77.6182 126.458V129.867C77.6182 131.054 76.6562 132.016 75.4694 132.016H72.061C70.8742 132.016 69.9122 131.054 69.9122 129.867V126.458ZM65.6146 152.762C65.6146 149.202 68.5007 146.316 72.061 146.316H75.4694C79.0297 146.316 81.9159 149.202 81.9159 152.762V156.171C81.9159 159.731 79.0297 162.617 75.4694 162.617H72.061C68.5007 162.617 65.6146 159.731 65.6146 156.171V152.762ZM72.061 150.614C70.8742 150.614 69.9122 151.576 69.9122 152.762V156.171C69.9122 157.358 70.8742 158.32 72.061 158.32H75.4694C76.6562 158.32 77.6182 157.358 77.6182 156.171V152.762C77.6182 151.576 76.6562 150.614 75.4694 150.614H72.061ZM144.751 123.346C144.751 109.105 156.296 97.5608 170.537 97.5608C184.778 97.5608 196.322 109.105 196.322 123.346C196.322 137.588 184.778 149.132 170.537 149.132C156.296 149.132 144.751 137.588 144.751 123.346ZM165.165 109.379C165.165 106.412 167.57 104.007 170.537 104.007C173.504 104.007 175.909 106.412 175.909 109.379V122.272C175.909 125.239 173.504 127.644 170.537 127.644C167.57 127.644 165.165 125.239 165.165 122.272V109.379ZM170.537 108.305C169.943 108.305 169.462 108.786 169.462 109.379V122.272C169.462 122.865 169.943 123.346 170.537 123.346C171.13 123.346 171.611 122.865 171.611 122.272V109.379C171.611 108.786 171.13 108.305 170.537 108.305ZM170.537 142.686C167.57 142.686 165.165 140.281 165.165 137.314C165.165 134.347 167.57 131.942 170.537 131.942C173.504 131.942 175.909 134.347 175.909 137.314C175.909 140.281 173.504 142.686 170.537 142.686ZM169.462 137.314C169.462 137.907 169.943 138.388 170.537 138.388C171.13 138.388 171.611 137.907 171.611 137.314C171.611 136.72 171.13 136.239 170.537 136.239C169.943 136.239 169.462 136.72 169.462 137.314Z" fill="#1571B3"/>
</svg>
