<?xml version="1.0" encoding="UTF-8"?>
<svg version="1.1" xmlns="http://www.w3.org/2000/svg" width="121" height="242">
<path d="M0 0 C6.27676867 2.12203923 10.31902772 6.46692574 15 11 C15.59941406 11.57363281 16.19882812 12.14726562 16.81640625 12.73828125 C37.79271659 34.72549811 49.24541654 70.19395341 50 100 C49.82277526 103.36305046 49.49873957 106.66995426 49 110 C49.59039062 110.2784375 50.18078125 110.556875 50.7890625 110.84375 C58.98234262 115.12857494 63.65683729 122.37800893 67.14453125 130.74609375 C70.98157086 145.34086083 67.26968669 160.35265399 60.44140625 173.390625 C58.40729745 175.66177087 57.01628595 175.82680434 54 176 C51.75170898 174.43286133 51.75170898 174.43286133 49.49609375 172.08203125 C48.67302734 171.23962891 47.84996094 170.39722656 47.00195312 169.52929688 C46.15568359 168.63275391 45.30941406 167.73621094 44.4375 166.8125 C43.58736328 165.93529297 42.73722656 165.05808594 41.86132812 164.15429688 C40.27358498 162.5142516 38.69207972 160.86812804 37.11889648 159.21411133 C35.10772191 157.11256251 33.06465334 155.0488904 31 153 C30.79375 153.598125 30.5875 154.19625 30.375 154.8125 C28.39290985 157.96582523 26.46808297 158.67582286 23 160 C20.00420458 160.60615316 17.04942735 160.83799917 14 161 C13.071875 161.06445312 12.14375 161.12890625 11.1875 161.1953125 C5.07448593 161.44448427 1.67430362 161.04264097 -3 157 C-7.51249936 163.37390535 -11.90292158 169.81682911 -16.203125 176.3359375 C-17.73985512 178.61430694 -19.32688967 180.82082543 -21 183 C-26.20931933 182.33213855 -27.99869517 180.44603924 -31.23046875 176.49609375 C-38.79710428 165.82262774 -43.80418997 152.59758432 -41.56640625 139.453125 C-39.86540963 131.97296596 -36.41300553 123.67144612 -30.36987305 118.64379883 C-28.78264593 117.08260414 -28.78264593 117.08260414 -28.93481445 114.86206055 C-29.0762085 114.04519775 -29.21760254 113.22833496 -29.36328125 112.38671875 C-29.50870361 111.47567383 -29.65412598 110.56462891 -29.80395508 109.62597656 C-30.05568481 108.17143066 -30.05568481 108.17143066 -30.3125 106.6875 C-35.19068224 74.90610419 -28.91405383 37.29747154 -10.24609375 10.48046875 C-7.20023944 6.40836547 -4.20942796 2.93384373 0 0 Z M-6.3125 64.5625 C-9.26167987 68.82242647 -9.51787585 72.95550565 -9 78 C-7.14143173 83.26594344 -4.39685804 85.79395768 0 89 C4.34597823 90.44865941 8.60375247 90.88893053 12.9375 89.28125 C17.9356495 86.60982527 21.20780829 83.37657513 23 78 C23.36826224 72.38400084 23.21556007 68.82334011 20 64 C16.01634367 60.06945908 12.87941985 57.84955906 7.25 57.6875 C0.99719844 57.7595784 -2.15634801 59.95703428 -6.3125 64.5625 Z " fill="#1D2346" transform="translate(45,7)"/>
<path d="M0 0 C3.529776 -0.32835126 5.51234647 -0.27865916 8.625 1.5 C15.65531623 8.90033288 16.5395447 17.72503276 16.328125 27.5078125 C15.75903753 38.55837157 10.28401375 46.63089888 3.515625 54.8984375 C0.1042604 59.1043746 -2.9513077 63.52791163 -6 68 C-7.9375 67.6875 -7.9375 67.6875 -10 67 C-11.56275765 62.31172705 -11.27154573 57.69716081 -10.5 52.875 C-9.7327639 46.92892024 -9.92526519 40.98708876 -10 35 C-12.97430766 36.48715383 -13.39244728 38.75754507 -14.75 41.75 C-17.25789029 46.88171711 -19.13706665 49.99946666 -24 53 C-26.875 53.8125 -26.875 53.8125 -29 54 C-28.94070312 52.86691406 -28.88140625 51.73382813 -28.8203125 50.56640625 C-28.82248399 45.63387576 -30.19904311 41.53273993 -31.875 36.9375 C-37.97774895 19.63664471 -37.97774895 19.63664471 -36 11 C-34.32008143 7.75601931 -33.03080803 5.73154118 -30.0625 3.625 C-27.62504469 2.88637718 -25.53293079 2.85928162 -23 3 C-23.15597656 3.54527344 -23.31195313 4.09054688 -23.47265625 4.65234375 C-25.79900468 13.66501815 -24.55127545 20.50781958 -21 29 C-20.37237545 27.77217138 -19.74803935 26.54266164 -19.125 25.3125 C-18.57199219 24.22195312 -18.57199219 24.22195312 -18.0078125 23.109375 C-16.90260852 20.9021923 -16.90260852 20.9021923 -16 18.0625 C-15.67 17.381875 -15.34 16.70125 -15 16 C-12.9375 15.37109375 -12.9375 15.37109375 -11 15 C-5.79088573 20.23765736 -2.75242372 24.79002813 -1 32 C2.41405705 24.26147068 3.31162578 16.24243196 0.4375 8.25 C0.14746094 7.53328125 -0.14257812 6.8165625 -0.44140625 6.078125 C-1.08836181 3.67126936 -0.79285576 2.33131097 0 0 Z " fill="#4A1B2C" transform="translate(72,169)"/>
<path d="M0 0 C3.529776 -0.32835126 5.51234647 -0.27865916 8.625 1.5 C15.64595014 8.89047383 16.52099653 17.6965587 16.3515625 27.46484375 C16.03496242 33.75294701 14.28944996 39.58972045 11 45 C9.015625 46.41015625 9.015625 46.41015625 7 47 C6.01 46.67 5.02 46.34 4 46 C2.5783681 49.3171411 1.60990891 52.44219804 1 56 C0.67 55.34 0.34 54.68 0 54 C-0.99 54.495 -0.99 54.495 -2 55 C-2 55.66 -2 56.32 -2 57 C-3.65 57 -5.3 57 -7 57 C-8.50930882 53.98138236 -8.18438844 50.87008697 -8.1875 47.5625 C-8.19974609 46.88123047 -8.21199219 46.19996094 -8.22460938 45.49804688 C-8.23555848 41.77170191 -8.12005619 40.18008429 -6 37 C-5.01 37 -4.02 37 -3 37 C-3.33 33.37 -3.66 29.74 -4 26 C-1.8614515 28.1385485 -1.57344937 29.13275314 -1 32 C2.41405705 24.26147068 3.31162578 16.24243196 0.4375 8.25 C0.14746094 7.53328125 -0.14257812 6.8165625 -0.44140625 6.078125 C-1.08836181 3.67126936 -0.79285576 2.33131097 0 0 Z " fill="#502637" transform="translate(72,169)"/>
<path d="M0 0 C-0.15597656 0.54527344 -0.31195313 1.09054688 -0.47265625 1.65234375 C-1.7375615 6.55280447 -2.10363262 10.51846666 -1.359375 15.515625 C-0.92404978 18.52504716 -0.67939881 21.53165026 -0.4375 24.5625 C-0.35371094 25.59503906 -0.26992188 26.62757813 -0.18359375 27.69140625 C-0.12300781 28.45324219 -0.06242187 29.21507812 0 30 C-0.59296875 29.68289062 -1.1859375 29.36578125 -1.796875 29.0390625 C-4.49483195 27.76662181 -7.05774741 27.40121626 -10 27 C-10 25.68 -10 24.36 -10 23 C-10.66 22.67 -11.32 22.34 -12 22 C-12.40264026 8.37733773 -12.40264026 8.37733773 -10 3 C-6.69952734 0.23473912 -4.25564258 -0.36476936 0 0 Z " fill="#491628" transform="translate(49,172)"/>
<path d="M0 0 C1.16306443 3.54950034 0.92365049 6.55823948 0.5625 10.25 C0.40974609 11.86648437 0.40974609 11.86648437 0.25390625 13.515625 C0.17011719 14.33546875 0.08632813 15.1553125 0 16 C0.99 16.33 1.98 16.66 3 17 C3 17.99 3 18.98 3 20 C4.134375 20.144375 5.26875 20.28875 6.4375 20.4375 C10 21 10 21 11 22 C11 19.69 11 17.38 11 15 C13 18 13 18 14 20 C14.66 19.67 15.32 19.34 16 19 C15.01 21.475 15.01 21.475 14 24 C15.32 23.67 16.64 23.34 18 23 C17.05065487 24.67180274 16.09026687 26.33733936 15.125 28 C14.59132813 28.928125 14.05765625 29.85625 13.5078125 30.8125 C13.01023437 31.534375 12.51265625 32.25625 12 33 C10 33 10 33 8.375 31.5 C7.92125 31.005 7.4675 30.51 7 30 C7.33 30.66 7.66 31.32 8 32 C8.07033769 33.87379605 8.0843022 35.75001102 8.0625 37.625 C8.05347656 38.62789062 8.04445313 39.63078125 8.03515625 40.6640625 C8.02355469 41.43492187 8.01195312 42.20578125 8 43 C9.41577477 41.81575674 9.41577477 41.81575674 9.0625 38.4375 C9.041875 37.303125 9.02125 36.16875 9 35 C10.485 34.505 10.485 34.505 12 34 C13.33333333 36 14.66666667 38 16 40 C12.71195019 42.91227269 10.40114397 44.49701212 6 45 C6.05929688 43.86691406 6.11859375 42.73382813 6.1796875 41.56640625 C6.17751601 36.63387576 4.80095689 32.53273993 3.125 27.9375 C-2.40635921 12.25649363 -2.40635921 12.25649363 -1.6875 6.6875 C-1.58824219 5.84574219 -1.48898438 5.00398437 -1.38671875 4.13671875 C-1 2 -1 2 0 0 Z " fill="#863947" transform="translate(37,178)"/>
<path d="M0 0 C0.33 0 0.66 0 1 0 C1.33 5.94 1.66 11.88 2 18 C4.475 18.99 4.475 18.99 7 20 C6.67 19.01 6.34 18.02 6 17 C7.32 17.33 8.64 17.66 10 18 C9.896875 16.9275 9.79375 15.855 9.6875 14.75 C10 11 10 11 12.5 8.5625 C13.325 8.046875 14.15 7.53125 15 7 C15.99 7.66 16.98 8.32 18 9 C16.55582667 13.4385892 14.09862561 16.5476667 11.0625 20 C8.01700045 23.49323674 5.26460131 26.93418114 3 31 C1.0625 30.6875 1.0625 30.6875 -1 30 C-3.21972763 23.3408171 -1.77958354 15.85822816 -1 9 C-0.85691406 7.69482422 -0.85691406 7.69482422 -0.7109375 6.36328125 C-0.47780345 4.24176143 -0.23944703 2.12081657 0 0 Z " fill="#A93241" transform="translate(63,206)"/>
<path d="M0 0 C4.19834127 1.39694361 6.83590529 3.37282069 10.0625 6.375 C10.89910156 7.14585938 11.73570313 7.91671875 12.59765625 8.7109375 C14.76530174 10.77636881 16.89512599 12.87082028 19 15 C18.67 15.66 18.34 16.32 18 17 C15 17 15 17 13 16 C13 15.01 13 14.02 13 13 C12.01 13.66 11.02 14.32 10 15 C9.773125 14.21625 9.54625 13.4325 9.3125 12.625 C8.23280539 9.82772835 8.23280539 9.82772835 5.625 8.75 C4.325625 8.37875 4.325625 8.37875 3 8 C2.34 7.7525 1.68 7.505 1 7.25 C-1.94691794 6.88163526 -3.4879304 7.43844322 -6 9 C-6.89830839 12.05272465 -6.89830839 12.05272465 -7 15 C-8.65 15.33 -10.3 15.66 -12 16 C-12 16.99 -12 17.98 -12 19 C-12.99 19.33 -13.98 19.66 -15 20 C-12.04244535 11.88122252 -6.95590823 5.08968895 0 0 Z " fill="#28326E" transform="translate(45,7)"/>
<path d="M0 0 C0.99 0.33 1.98 0.66 3 1 C3 1.66 3 2.32 3 3 C3.66 3.33 4.32 3.66 5 4 C5.33 3.34 5.66 2.68 6 2 C5.42365861 6.75481646 3.44931479 9.97048212 1 14 C-3.875 12.25 -3.875 12.25 -5 10 C-5.66 10 -6.32 10 -7 10 C-6.67 12.64 -6.34 15.28 -6 18 C-6.66 18 -7.32 18 -8 18 C-8.33 13.71 -8.66 9.42 -9 5 C-8.01 5.33 -7.02 5.66 -6 6 C-6 6.66 -6 7.32 -6 8 C-5.34 8 -4.68 8 -4 8 C-3.71125 7.05125 -3.4225 6.1025 -3.125 5.125 C-2 2 -2 2 0 0 Z " fill="#850F1F" transform="translate(53,203)"/>
<path d="M0 0 C-0.350625 1.2375 -0.70125 2.475 -1.0625 3.75 C-2.39467036 9.59105465 -1.73763157 15.10891542 -1 21 C-1.99 20.67 -2.98 20.34 -4 20 C-4.04898438 19.38511719 -4.09796875 18.77023438 -4.1484375 18.13671875 C-4.22320312 17.32847656 -4.29796875 16.52023438 -4.375 15.6875 C-4.44460937 14.88699219 -4.51421875 14.08648437 -4.5859375 13.26171875 C-4.89564426 10.72775559 -4.89564426 10.72775559 -7 8 C-7.625 5.8125 -7.625 5.8125 -8 4 C-8.99 4.66 -9.98 5.32 -11 6 C-10.03628506 3.59071265 -9.34789837 2.23992991 -7.1875 0.75 C-4.67678635 -0.11081611 -2.63651351 -0.14647297 0 0 Z " fill="#68626B" transform="translate(49,172)"/>
<path d="M0 0 C4.875 1.75 4.875 1.75 6 4 C3.525 3.505 3.525 3.505 1 3 C0.5875 3.804375 0.175 4.60875 -0.25 5.4375 C-2 8 -2 8 -4.1875 8.8125 C-4.785625 8.874375 -5.38375 8.93625 -6 9 C-6.33 10.98 -6.66 12.96 -7 15 C-8.65 15.33 -10.3 15.66 -12 16 C-12 16.99 -12 17.98 -12 19 C-12.99 19.33 -13.98 19.66 -15 20 C-12.04244535 11.88122252 -6.95590823 5.08968895 0 0 Z " fill="#5A6088" transform="translate(45,7)"/>
<path d="M0 0 C3.93774177 -0.36630156 5.56539771 -0.30233203 8.875 2 C9.926875 2.99 9.926875 2.99 11 4 C10.67 4.66 10.34 5.32 10 6 C9.01 5.34 8.02 4.68 7 4 C4.83688562 5.72400465 4.06124927 6.57555794 3.65942383 9.36010742 C3.67513428 10.26607666 3.69084473 11.1720459 3.70703125 12.10546875 C3.71669922 13.08837891 3.72636719 14.07128906 3.73632812 15.08398438 C3.7740332 16.62022461 3.7740332 16.62022461 3.8125 18.1875 C3.82603516 19.22326172 3.83957031 20.25902344 3.85351562 21.32617188 C3.88888611 23.88463699 3.93824456 26.4420578 4 29 C3.01 29.33 2.02 29.66 1 30 C1.10699219 28.87722656 1.21398437 27.75445312 1.32421875 26.59765625 C2.02924364 18.20017224 2.22799372 11.93548455 -1 4 C-0.59375 1.76953125 -0.59375 1.76953125 0 0 Z " fill="#8C8C91" transform="translate(72,169)"/>
<path d="M0 0 C0.33 0.66 0.66 1.32 1 2 C1.66 2 2.32 2 3 2 C3 5.63 3 9.26 3 13 C4.41577477 11.81575674 4.41577477 11.81575674 4.0625 8.4375 C4.041875 7.303125 4.02125 6.16875 4 5 C4.99 4.67 5.98 4.34 7 4 C8.33333333 6 9.66666667 8 11 10 C7.71195019 12.91227269 5.40114397 14.49701212 1 15 C1.020625 13.824375 1.04125 12.64875 1.0625 11.4375 C1.06947261 7.52586533 0.64250343 3.85502056 0 0 Z " fill="#A1303E" transform="translate(42,208)"/>
<path d="M0 0 C1.953125 0.7109375 1.953125 0.7109375 4 2 C4.609375 4.1640625 4.609375 4.1640625 4.75 6.625 C4.80671875 7.44226563 4.8634375 8.25953125 4.921875 9.1015625 C4.96054687 10.04128906 4.96054687 10.04128906 5 11 C4.40703125 10.68289062 3.8140625 10.36578125 3.203125 10.0390625 C0.50516805 8.76662181 -2.05774741 8.40121626 -5 8 C-5 6.02 -5 4.04 -5 2 C-3.68 2 -2.36 2 -1 2 C-0.67 1.34 -0.34 0.68 0 0 Z " fill="#5C1426" transform="translate(44,191)"/>
<path d="M0 0 C0.99 0.66 1.98 1.32 3 2 C1.47987323 7.40489519 -2.27385218 10.98492628 -6 15 C-6.99 13.68 -7.98 12.36 -9 11 C-8.01 10.67 -7.02 10.34 -6 10 C-5.67 10.33 -5.34 10.66 -5 11 C-5.103125 9.9275 -5.20625 8.855 -5.3125 7.75 C-5 4 -5 4 -2.5 1.5625 C-1.2625 0.7890625 -1.2625 0.7890625 0 0 Z " fill="#9C5661" transform="translate(78,213)"/>
<path d="M0 0 C0.33 0 0.66 0 1 0 C1.1964031 3.29119935 1.38060745 6.58296934 1.5625 9.875 C1.61857422 10.81214844 1.67464844 11.74929687 1.73242188 12.71484375 C1.78076172 13.61074219 1.82910156 14.50664062 1.87890625 15.4296875 C1.94960327 16.67081299 1.94960327 16.67081299 2.02172852 17.93701172 C2 20 2 20 1 22 C0.95977609 24.3329866 0.95679753 26.66706666 1 29 C1.66 29 2.32 29 3 29 C3 29.66 3 30.32 3 31 C1.0625 30.6875 1.0625 30.6875 -1 30 C-3.21972763 23.3408171 -1.77958354 15.85822816 -1 9 C-0.85691406 7.69482422 -0.85691406 7.69482422 -0.7109375 6.36328125 C-0.47780345 4.24176143 -0.23944703 2.12081657 0 0 Z " fill="#C79DA1" transform="translate(63,206)"/>
<path d="M0 0 C1.32 0.66 2.64 1.32 4 2 C3.071875 2.5775 2.14375 3.155 1.1875 3.75 C-2.48134412 6.33977232 -4.495854 8.22066117 -5.73046875 12.578125 C-5.88128906 13.45984375 -6.03210937 14.3415625 -6.1875 15.25 C-6.42533203 16.58804688 -6.42533203 16.58804688 -6.66796875 17.953125 C-6.77753906 18.62859375 -6.88710938 19.3040625 -7 20 C-7.33 20 -7.66 20 -8 20 C-8.33 16.37 -8.66 12.74 -9 9 C-8.01 9 -7.02 9 -6 9 C-6 7.35 -6 5.7 -6 4 C-5.34 3.67 -4.68 3.34 -4 3 C-4.33 2.34 -4.66 1.68 -5 1 C-3.35 1 -1.7 1 0 1 C0 0.67 0 0.34 0 0 Z " fill="#7C7F95" transform="translate(43,64)"/>
<path d="M0 0 C3.00597698 3.45687353 4.35233984 7.27441248 5.75 11.5625 C5.98332031 12.23474609 6.21664062 12.90699219 6.45703125 13.59960938 C8.12442058 18.62673827 8.12442058 18.62673827 7 22 C6.01 21.34 5.02 20.68 4 20 C4 18 4 16 4 14 C2.60075055 10.69898869 2.60075055 10.69898869 1 8 C0.67 8 0.34 8 0 8 C0 5.36 0 2.72 0 0 Z " fill="#84859B" transform="translate(82,55)"/>
<path d="M0 0 C2.65171248 2.37094293 4.1490052 4.83568087 5.75 8 C6.19859375 8.86625 6.6471875 9.7325 7.109375 10.625 C8 13 8 13 7 16 C6.896875 15.360625 6.79375 14.72125 6.6875 14.0625 C6.460625 13.381875 6.23375 12.70125 6 12 C5.01 11.67 4.02 11.34 3 11 C3 10.34 3 9.68 3 9 C2.34 9 1.68 9 1 9 C1 9.99 1 10.98 1 12 C0.34 12 -0.32 12 -1 12 C-1.125 9.125 -1.125 9.125 -1 6 C-0.34 5.34 0.32 4.68 1 4 C0.6814823 1.89179203 0.6814823 1.89179203 0 0 Z " fill="#535A81" transform="translate(74,39)"/>
<path d="M0 0 C3.39417765 3.12621626 5.6062718 5.56541027 7 10 C6.01 9.67 5.02 9.34 4 9 C3.67 9.99 3.34 10.98 3 12 C2.34 11.67 1.68 11.34 1 11 C1.33 9.68 1.66 8.36 2 7 C0.68 7 -0.64 7 -2 7 C-2.33 5.35 -2.66 3.7 -3 2 C-2.01 2 -1.02 2 0 2 C0 1.34 0 0.68 0 0 Z " fill="#4D5381" transform="translate(64,24)"/>
<path d="M0 0 C3.50919807 0.3001758 5.08539228 1.75552343 7.3125 4.375 C7.84488281 4.98085937 8.37726563 5.58671875 8.92578125 6.2109375 C9.28027344 6.80132812 9.63476562 7.39171875 10 8 C9.67 8.99 9.34 9.98 9 11 C8.319375 9.7625 8.319375 9.7625 7.625 8.5 C7.08875 7.675 6.5525 6.85 6 6 C5.34 6 4.68 6 4 6 C4 5.01 4 4.02 4 3 C2.35 3.33 0.7 3.66 -1 4 C-0.01 4.99 0.98 5.98 2 7 C0.68 7 -0.64 7 -2 7 C-2.33 7.66 -2.66 8.32 -3 9 C-2.25 2.25 -2.25 2.25 0 0 Z " fill="#998E94" transform="translate(58,184)"/>
<path d="M0 0 C1 3 1 3 0.00390625 5.26171875 C-0.47175781 6.06222656 -0.94742188 6.86273438 -1.4375 7.6875 C-2.14712891 8.89986328 -2.14712891 8.89986328 -2.87109375 10.13671875 C-3.24363281 10.75160156 -3.61617187 11.36648437 -4 12 C-6 8.25 -6 8.25 -6 6 C-5.34 6 -4.68 6 -4 6 C-5.05270463 4.84188612 -5.05270463 4.84188612 -7 4 C-7 3.34 -7 2.68 -7 2 C-2.25 0.875 -2.25 0.875 0 2 C0 1.34 0 0.68 0 0 Z " fill="#9B5560" transform="translate(58,205)"/>
<path d="M0 0 C0.77772405 2.33317216 1.42415568 4.61435923 2 7 C1.34 7 0.68 7 0 7 C-0.33 8.32 -0.66 9.64 -1 11 C-1.66 11 -2.32 11 -3 11 C-3.33 11.66 -3.66 12.32 -4 13 C-3.91266424 11.39482903 -3.80447776 9.79078338 -3.6875 8.1875 C-3.62949219 7.29417969 -3.57148437 6.40085938 -3.51171875 5.48046875 C-2.93686419 2.69396 -2.1793144 1.75864246 0 0 Z " fill="#331729" transform="translate(41,175)"/>
<path d="M0 0 C0.33 0 0.66 0 1 0 C1.32272606 5.37876771 0.45786218 8.28090461 -2 13 C-2.165 14.216875 -2.33 15.43375 -2.5 16.6875 C-3.03392389 20.22474575 -3.4582536 20.76245197 -6 23 C-4.80398501 15.00558401 -2.73311633 7.602309 0 0 Z " fill="#9598AD" transform="translate(23,41)"/>
<path d="M0 0 C0.66 0.99 1.32 1.98 2 3 C1.5390625 5.26171875 1.5390625 5.26171875 0.625 7.6875 C0.32851563 8.49574219 0.03203125 9.30398437 -0.2734375 10.13671875 C-0.51320313 10.75160156 -0.75296875 11.36648437 -1 12 C-1.99 12 -2.98 12 -4 12 C-4.33 12.66 -4.66 13.32 -5 14 C-4.34580901 8.93001981 -2.1453591 4.58009223 0 0 Z " fill="#5D6286" transform="translate(29,27)"/>
<path d="M0 0 C1.16306443 3.54950034 0.92365049 6.55823948 0.5625 10.25 C0.40974609 11.86648437 0.40974609 11.86648437 0.25390625 13.515625 C0.17011719 14.33546875 0.08632813 15.1553125 0 16 C0.99 16.33 1.98 16.66 3 17 C2.67 18.65 2.34 20.3 2 22 C-2.38764485 15.41853273 -2.37400824 9.5917425 -1 2 C-0.67 1.34 -0.34 0.68 0 0 Z " fill="#AB9A9E" transform="translate(37,178)"/>
<path d="M0 0 C1.98 0.66 3.96 1.32 6 2 C4.25 9.625 4.25 9.625 2 13 C1.34 8.71 0.68 4.42 0 0 Z " fill="#63677F" transform="translate(66,72)"/>
<path d="M0 0 C2.1385485 2.1385485 2.42655063 3.13275314 3 6 C3.66 5.34 4.32 4.68 5 4 C5 4.99 5 5.98 5 7 C5.66 7.33 6.32 7.66 7 8 C6.01 8.33 5.02 8.66 4 9 C4 9.99 4 10.98 4 12 C3.01 12.33 2.02 12.66 1 13 C-0.32229189 10.35541621 -0.09677194 8.32238699 -0.0625 5.375 C-0.05347656 4.37210938 -0.04445313 3.36921875 -0.03515625 2.3359375 C-0.02355469 1.56507813 -0.01195313 0.79421875 0 0 Z " fill="#987880" transform="translate(68,195)"/>
<path d="M0 0 C0.99 0.33 1.98 0.66 3 1 C2.67 1.99 2.34 2.98 2 4 C0.68 4 -0.64 4 -2 4 C-1.34 2.68 -0.68 1.36 0 0 Z M-3 4 C-2.34 4.66 -1.68 5.32 -1 6 C-0.01 6 0.98 6 2 6 C1.67 6.66 1.34 7.32 1 8 C0.34 8 -0.32 8 -1 8 C-0.67 9.98 -0.34 11.96 0 14 C-2 12 -2 12 -2.125 9.375 C-2.08375 8.59125 -2.0425 7.8075 -2 7 C-2.66 6.67 -3.32 6.34 -4 6 C-3.67 5.34 -3.34 4.68 -3 4 Z " fill="#761123" transform="translate(53,203)"/>
<path d="M0 0 C0.66 0 1.32 0 2 0 C4.61046448 2.84777943 6.42676569 5.13066838 7 9 C6.34 9 5.68 9 5 9 C4.67 8.34 4.34 7.68 4 7 C3.01 7 2.02 7 1 7 C1 6.34 1 5.68 1 5 C0.34 5 -0.32 5 -1 5 C-0.67 3.35 -0.34 1.7 0 0 Z " fill="#131C52" transform="translate(75,48)"/>
<path d="M0 0 C0 1.98 0 3.96 0 6 C-1.65 6.33 -3.3 6.66 -5 7 C-5.33 5.68 -5.66 4.36 -6 3 C-1.125 0 -1.125 0 0 0 Z " fill="#50525E" transform="translate(25,183)"/>
<path d="M0 0 C0.33 0.66 0.66 1.32 1 2 C1.66 2 2.32 2 3 2 C3 5.63 3 9.26 3 13 C3.99 13.33 4.98 13.66 6 14 C4.35 14.33 2.7 14.66 1 15 C1.020625 13.824375 1.04125 12.64875 1.0625 11.4375 C1.06947261 7.52586533 0.64250343 3.85502056 0 0 Z " fill="#C59EA2" transform="translate(42,208)"/>
<path d="M0 0 C0.66 0.33 1.32 0.66 2 1 C1.67 2.32 1.34 3.64 1 5 C-0.65 5.33 -2.3 5.66 -4 6 C-4 6.99 -4 7.98 -4 9 C-4.99 9.33 -5.98 9.66 -7 10 C-5.6062718 5.56541027 -3.39417765 3.12621626 0 0 Z " fill="#595D88" transform="translate(37,17)"/>
<path d="M0 0 C0.99 0 1.98 0 3 0 C3.33 1.65 3.66 3.3 4 5 C3.01 5 2.02 5 1 5 C0.67 5.99 0.34 6.98 0 8 C-0.33 8 -0.66 8 -1 8 C-1.125 2.25 -1.125 2.25 0 0 Z " fill="#571326" transform="translate(65,201)"/>
<path d="M0 0 C0.66 1.32 1.32 2.64 2 4 C1.01 4.495 1.01 4.495 0 5 C-0.33 5.99 -0.66 6.98 -1 8 C-1.66 8 -2.32 8 -3 8 C-3 7.34 -3 6.68 -3 6 C-3.99 6.33 -4.98 6.66 -6 7 C-5.67 5.68 -5.34 4.36 -5 3 C-4.360625 2.87625 -3.72125 2.7525 -3.0625 2.625 C-2.0415625 2.315625 -2.0415625 2.315625 -1 2 C-0.67 1.34 -0.34 0.68 0 0 Z " fill="#754754" transform="translate(65,198)"/>
<path d="M0 0 C2.31 1.98 4.62 3.96 7 6 C6.67 6.66 6.34 7.32 6 8 C3 8 3 8 1 7 C1 6.01 1 5.02 1 4 C0.34 3.67 -0.32 3.34 -1 3 C-0.67 2.01 -0.34 1.02 0 0 Z " fill="#6C7096" transform="translate(57,16)"/>
<path d="M0 0 C0.98316039 3.40388303 1.29411056 6.72259589 1.5625 10.25 C1.64628906 11.32765625 1.73007812 12.4053125 1.81640625 13.515625 C1.87699219 14.33546875 1.93757813 15.1553125 2 16 C1.01 15.67 0.02 15.34 -1 15 C-1.02703381 13.06257659 -1.04641125 11.12504521 -1.0625 9.1875 C-1.07410156 8.10855469 -1.08570313 7.02960938 -1.09765625 5.91796875 C-1 3 -1 3 0 0 Z " fill="#B1A3A7" transform="translate(46,177)"/>
<path d="M0 0 C0.99 0.99 1.98 1.98 3 3 C1.68 3.33 0.36 3.66 -1 4 C-1 4.66 -1 5.32 -1 6 C-1.66 6 -2.32 6 -3 6 C-3.33 6.66 -3.66 7.32 -4 8 C-3.6875 5.125 -3.6875 5.125 -3 2 C-2.01 1.34 -1.02 0.68 0 0 Z " fill="#191B2D" transform="translate(79,172)"/>
<path d="M0 0 C1.010625 0.474375 2.02125 0.94875 3.0625 1.4375 C6.65922205 2.9936328 10.09268709 3.6012946 14 4 C14 4.33 14 4.66 14 5 C4.8726128 6.60251836 4.8726128 6.60251836 1.375 4.1875 C0 2 0 2 0 0 Z " fill="#9193A2" transform="translate(41,93)"/>
<path d="M0 0 C1 3 1 3 -0.125 5.625 C-2 8 -2 8 -4.6875 8.8125 C-5.450625 8.874375 -6.21375 8.93625 -7 9 C-7.33 8.34 -7.66 7.68 -8 7 C-7.05125 6.5875 -6.1025 6.175 -5.125 5.75 C-1.99283376 3.9959869 -1.13499394 3.29148243 0 0 Z " fill="#B0B0B3" transform="translate(106,174)"/>
<path d="M0 0 C2.89932357 2.39509338 3.50168276 4.31245243 4 8 C1.37812506 6.95125002 0.20628639 6.35068687 -1.25 3.875 C-1.4975 3.25625 -1.745 2.6375 -2 2 C-1.34 2 -0.68 2 0 2 C0 1.34 0 0.68 0 0 Z " fill="#6E6F7B" transform="translate(107,130)"/>
<path d="M0 0 C0.66 0.66 1.32 1.32 2 2 C1.75 5.0625 1.75 5.0625 1 8 C0.01 8.495 0.01 8.495 -1 9 C-1.33 6.36 -1.66 3.72 -2 1 C-1.34 0.67 -0.68 0.34 0 0 Z " fill="#6D6F7A" transform="translate(108,165)"/>
<path d="M0 0 C-1.1858237 3.37503669 -2.27573689 5.64722731 -5 8 C-5.6875 5.6875 -5.6875 5.6875 -6 3 C-4.0819994 0.21889913 -3.45555657 0 0 0 Z " fill="#72737C" transform="translate(41,163)"/>
<path d="M0 0 C-0.99 0.66 -1.98 1.32 -3 2 C-2.67 2.66 -2.34 3.32 -2 4 C-3.65 4 -5.3 4 -7 4 C-6.6875 2.0625 -6.6875 2.0625 -6 0 C-3 -1 -3 -1 0 0 Z " fill="#111A4F" transform="translate(42,64)"/>
<path d="M0 0 C0.66 0 1.32 0 2 0 C2.6875 2.75 2.6875 2.75 3 6 C2.01 7.32 1.02 8.64 0 10 C0 6.7 0 3.4 0 0 Z " fill="#751020" transform="translate(64,213)"/>
<path d="M0 0 C0.66 1.32 1.32 2.64 2 4 C-1 6 -1 6 -5 6 C-5 5.34 -5 4.68 -5 4 C-4.01 4 -3.02 4 -2 4 C-1.34 2.68 -0.68 1.36 0 0 Z " fill="#551326" transform="translate(56,196)"/>
<path d="M0 0 C1.32 0 2.64 0 4 0 C3.67 0.99 3.34 1.98 3 3 C0.4375 4.1875 0.4375 4.1875 -2 5 C-1.125 1.125 -1.125 1.125 0 0 Z " fill="#1B1E30" transform="translate(101,176)"/>
<path d="M0 0 C0.6875 1.625 0.6875 1.625 1 4 C-0.4375 7.25 -0.4375 7.25 -2 10 C-2.6875 8.375 -2.6875 8.375 -3 6 C-1.5625 2.75 -1.5625 2.75 0 0 Z " fill="#131B4B" transform="translate(23,48)"/>
<path d="M0 0 C0.66 0.33 1.32 0.66 2 1 C2.625 4.0625 2.625 4.0625 3 7 C1.68 6.34 0.36 5.68 -1 5 C-0.67 3.35 -0.34 1.7 0 0 Z " fill="#696B86" transform="translate(87,70)"/>
<path d="M0 0 C1.32 1.32 2.64 2.64 4 4 C2.1875 4.6875 2.1875 4.6875 0 5 C-1.75 3.5625 -1.75 3.5625 -3 2 C-2.01 1.34 -1.02 0.68 0 0 Z " fill="#131B5A" transform="translate(61,22)"/>
<path d="M0 0 C3.0916909 2.52956528 3.90931332 5.22454612 5 9 C3.0625 8.4375 3.0625 8.4375 1 7 C0.25 3.375 0.25 3.375 0 0 Z " fill="#A3A6B7" transform="translate(74,39)"/>
<path d="M0 0 C0.66 0.99 1.32 1.98 2 3 C1.125 5.6875 1.125 5.6875 0 8 C-0.66 7.67 -1.32 7.34 -2 7 C-1.125 2.25 -1.125 2.25 0 0 Z " fill="#707394" transform="translate(29,27)"/>
<path d="M0 0 C0.33 0.66 0.66 1.32 1 2 C0.06694014 4.71435596 -0.62673377 5.78043163 -3.125 7.25 C-3.74375 7.4975 -4.3625 7.745 -5 8 C-3.8141763 4.62496331 -2.72426311 2.35277269 0 0 Z " fill="#888CA9" transform="translate(40,11)"/>
</svg>
