<?xml version="1.0" encoding="UTF-8"?>
<svg xmlns="http://www.w3.org/2000/svg" xmlns:xlink="http://www.w3.org/1999/xlink" width="95px" height="242px" viewBox="0 0 95 242" version="1.1">
<g id="surface1">
<path style=" stroke:none;fill-rule:nonzero;fill:rgb(11.372549%,13.72549%,27.45098%);fill-opacity:1;" d="M 35.332031 7 C 40.257812 9.121094 43.433594 13.46875 47.109375 18 C 47.578125 18.574219 48.046875 19.148438 48.535156 19.738281 C 65.003906 41.726562 73.996094 77.195312 74.585938 107 C 74.449219 110.363281 74.191406 113.671875 73.800781 117 C 74.265625 117.277344 74.730469 117.558594 75.207031 117.84375 C 81.640625 122.128906 85.308594 129.378906 88.046875 137.746094 C 91.058594 152.339844 88.144531 167.351562 82.785156 180.390625 C 81.1875 182.660156 80.09375 182.828125 77.726562 183 C 75.960938 181.433594 75.960938 181.433594 74.191406 179.082031 C 73.546875 178.238281 72.898438 177.398438 72.234375 176.53125 C 71.570312 175.632812 70.902344 174.734375 70.21875 173.8125 C 69.550781 172.933594 68.882812 172.058594 68.195312 171.15625 C 66.949219 169.515625 65.707031 167.867188 64.472656 166.214844 C 62.894531 164.113281 61.289062 162.050781 59.667969 160 C 59.507812 160.597656 59.34375 161.195312 59.179688 161.8125 C 57.621094 164.964844 56.109375 165.675781 53.386719 167 C 51.035156 167.605469 48.714844 167.839844 46.324219 168 C 45.59375 168.0625 44.863281 168.128906 44.113281 168.195312 C 39.316406 168.445312 36.644531 168.042969 32.976562 164 C 29.433594 170.375 25.984375 176.816406 22.609375 183.335938 C 21.402344 185.613281 20.15625 187.820312 18.84375 190 C 14.753906 189.332031 13.347656 187.445312 10.8125 183.496094 C 4.871094 172.824219 0.9375 159.597656 2.695312 146.453125 C 4.03125 138.972656 6.742188 130.671875 11.488281 125.644531 C 12.734375 124.082031 12.734375 124.082031 12.613281 121.863281 C 12.503906 121.046875 12.390625 120.226562 12.277344 119.386719 C 12.164062 118.476562 12.046875 117.566406 11.929688 116.625 C 11.734375 115.171875 11.734375 115.171875 11.53125 113.6875 C 7.703125 81.90625 12.628906 44.296875 27.285156 17.480469 C 29.675781 13.410156 32.027344 9.933594 35.332031 7 Z M 30.375 71.5625 C 28.058594 75.824219 27.859375 79.957031 28.265625 85 C 29.722656 90.265625 31.878906 92.792969 35.332031 96 C 38.742188 97.449219 42.085938 97.890625 45.488281 96.28125 C 49.414062 93.609375 51.980469 90.375 53.386719 85 C 53.675781 79.382812 53.558594 75.824219 51.03125 71 C 47.90625 67.070312 45.441406 64.847656 41.023438 64.6875 C 36.113281 64.757812 33.636719 66.957031 30.375 71.5625 Z M 30.375 71.5625 "/>
<path style=" stroke:none;fill-rule:nonzero;fill:rgb(29.019608%,10.588235%,17.254902%);fill-opacity:1;" d="M 56.527344 169 C 59.300781 168.671875 60.855469 168.722656 63.300781 170.5 C 68.820312 177.898438 69.515625 186.726562 69.347656 196.507812 C 68.902344 207.558594 64.601562 215.632812 59.289062 223.898438 C 56.609375 228.105469 54.210938 232.527344 51.816406 237 C 50.296875 236.6875 50.296875 236.6875 48.675781 236 C 47.449219 231.3125 47.679688 226.695312 48.285156 221.875 C 48.886719 215.929688 48.738281 209.988281 48.675781 204 C 46.34375 205.488281 46.015625 207.757812 44.949219 210.75 C 42.980469 215.882812 41.503906 219 37.6875 222 C 35.429688 222.8125 35.429688 222.8125 33.761719 223 C 33.808594 221.867188 33.851562 220.734375 33.902344 219.566406 C 33.898438 214.632812 32.820312 210.53125 31.503906 205.9375 C 26.710938 188.636719 26.710938 188.636719 28.265625 180 C 29.582031 176.757812 30.59375 174.730469 32.925781 172.625 C 34.839844 171.886719 36.480469 171.859375 38.472656 172 C 38.347656 172.546875 38.226562 173.089844 38.101562 173.652344 C 36.273438 182.664062 37.253906 189.507812 40.042969 198 C 40.535156 196.773438 41.023438 195.542969 41.511719 194.3125 C 41.949219 193.222656 41.949219 193.222656 42.390625 192.109375 C 43.257812 189.902344 43.257812 189.902344 43.96875 187.0625 C 44.226562 186.382812 44.484375 185.703125 44.753906 185 C 46.371094 184.371094 46.371094 184.371094 47.890625 184 C 51.980469 189.238281 54.367188 193.789062 55.742188 201 C 58.425781 193.261719 59.128906 185.242188 56.871094 177.25 C 56.644531 176.535156 56.417969 175.816406 56.183594 175.078125 C 55.675781 172.671875 55.90625 171.332031 56.527344 169 Z M 56.527344 169 "/>
<path style=" stroke:none;fill-rule:nonzero;fill:rgb(31.372549%,14.901961%,21.568627%);fill-opacity:1;" d="M 56.527344 169 C 59.300781 168.671875 60.855469 168.722656 63.300781 170.5 C 68.8125 177.890625 69.5 186.695312 69.367188 196.464844 C 69.117188 202.753906 67.746094 208.589844 65.164062 214 C 63.605469 215.410156 63.605469 215.410156 62.023438 216 C 61.246094 215.671875 60.46875 215.339844 59.667969 215 C 58.554688 218.316406 57.792969 221.441406 57.3125 225 C 57.054688 224.339844 56.796875 223.679688 56.527344 223 C 55.75 223.496094 55.75 223.496094 54.957031 224 C 54.957031 224.660156 54.957031 225.320312 54.957031 226 C 53.664062 226 52.367188 226 51.03125 226 C 49.847656 222.980469 50.101562 219.871094 50.101562 216.5625 C 50.089844 215.882812 50.082031 215.199219 50.070312 214.5 C 50.0625 210.773438 50.152344 209.179688 51.816406 206 C 52.59375 206 53.371094 206 54.171875 206 C 53.914062 202.371094 53.65625 198.738281 53.386719 195 C 55.066406 197.136719 55.292969 198.132812 55.742188 201 C 58.425781 193.261719 59.128906 185.242188 56.871094 177.25 C 56.644531 176.535156 56.417969 175.816406 56.183594 175.078125 C 55.675781 172.671875 55.90625 171.332031 56.527344 169 Z M 56.527344 169 "/>
<path style=" stroke:none;fill-rule:nonzero;fill:rgb(28.627451%,8.627451%,15.686275%);fill-opacity:1;" d="M 38.472656 172 C 38.347656 172.546875 38.226562 173.089844 38.101562 173.652344 C 37.105469 178.554688 36.820312 182.519531 37.402344 187.515625 C 37.746094 190.523438 37.9375 193.53125 38.128906 196.5625 C 38.195312 197.59375 38.257812 198.628906 38.328125 199.691406 C 38.375 200.453125 38.421875 201.214844 38.472656 202 C 38.003906 201.683594 37.539062 201.367188 37.058594 201.039062 C 34.941406 199.765625 32.929688 199.402344 30.621094 199 C 30.621094 197.679688 30.621094 196.359375 30.621094 195 C 30.101562 194.671875 29.582031 194.339844 29.050781 194 C 28.734375 180.378906 28.734375 180.378906 30.621094 175 C 33.210938 172.234375 35.128906 171.636719 38.472656 172 Z M 38.472656 172 "/>
<path style=" stroke:none;fill-rule:nonzero;fill:rgb(52.54902%,22.352941%,27.843137%);fill-opacity:1;" d="M 29.050781 178 C 29.960938 181.550781 29.773438 184.558594 29.492188 188.25 C 29.371094 189.867188 29.371094 189.867188 29.25 191.515625 C 29.183594 192.335938 29.117188 193.15625 29.050781 194 C 29.828125 194.328125 30.605469 194.660156 31.40625 195 C 31.40625 195.988281 31.40625 196.980469 31.40625 198 C 32.296875 198.144531 33.1875 198.289062 34.105469 198.4375 C 36.902344 199 36.902344 199 37.6875 200 C 37.6875 197.691406 37.6875 195.378906 37.6875 193 C 39.257812 196 39.257812 196 40.042969 198 C 40.558594 197.671875 41.078125 197.339844 41.613281 197 C 40.835938 199.476562 40.835938 199.476562 40.042969 202 C 41.078125 201.671875 42.113281 201.339844 43.183594 201 C 42.4375 202.671875 41.683594 204.335938 40.925781 206 C 40.503906 206.929688 40.085938 207.855469 39.65625 208.8125 C 39.265625 209.535156 38.875 210.257812 38.472656 211 C 36.902344 211 36.902344 211 35.625 209.5 C 35.269531 209.003906 34.914062 208.511719 34.546875 208 C 34.804688 208.660156 35.0625 209.320312 35.332031 210 C 35.386719 211.875 35.398438 213.75 35.378906 215.625 C 35.371094 216.628906 35.367188 217.628906 35.359375 218.664062 C 35.347656 219.433594 35.339844 220.207031 35.332031 221 C 36.441406 219.816406 36.441406 219.816406 36.164062 216.4375 C 36.148438 215.304688 36.132812 214.167969 36.117188 213 C 37.28125 212.503906 37.28125 212.503906 38.472656 212 C 39.519531 214 40.566406 216 41.613281 218 C 39.03125 220.914062 37.214844 222.496094 33.761719 223 C 33.808594 221.867188 33.851562 220.734375 33.902344 219.566406 C 33.898438 214.632812 32.820312 210.53125 31.503906 205.9375 C 27.160156 190.257812 27.160156 190.257812 27.726562 184.6875 C 27.800781 183.847656 27.878906 183.003906 27.960938 182.136719 C 28.265625 180 28.265625 180 29.050781 178 Z M 29.050781 178 "/>
<path style=" stroke:none;fill-rule:nonzero;fill:rgb(66.27451%,19.607843%,25.490196%);fill-opacity:1;" d="M 49.460938 206 C 49.722656 206 49.980469 206 50.246094 206 C 50.507812 211.941406 50.765625 217.878906 51.03125 224 C 52.976562 224.988281 52.976562 224.988281 54.957031 226 C 54.699219 225.011719 54.441406 224.019531 54.171875 223 C 55.210938 223.328125 56.246094 223.660156 57.3125 224 C 57.234375 222.925781 57.152344 221.855469 57.070312 220.75 C 57.3125 217 57.3125 217 59.277344 214.5625 C 59.925781 214.046875 60.574219 213.53125 61.238281 213 C 62.015625 213.660156 62.792969 214.320312 63.59375 215 C 62.460938 219.4375 60.53125 222.546875 58.148438 226 C 55.757812 229.492188 53.597656 232.933594 51.816406 237 C 50.296875 236.6875 50.296875 236.6875 48.675781 236 C 46.933594 229.339844 48.066406 221.859375 48.675781 215 C 48.789062 213.695312 48.789062 213.695312 48.90625 212.363281 C 49.085938 210.242188 49.273438 208.121094 49.460938 206 Z M 49.460938 206 "/>
<path style=" stroke:none;fill-rule:nonzero;fill:rgb(15.686275%,19.607843%,43.137255%);fill-opacity:1;" d="M 35.332031 7 C 38.625 8.398438 40.699219 10.371094 43.230469 13.375 C 43.886719 14.144531 44.542969 14.917969 45.222656 15.710938 C 46.921875 17.777344 48.59375 19.871094 50.246094 22 C 49.988281 22.660156 49.730469 23.320312 49.460938 24 C 47.109375 24 47.109375 24 45.539062 23 C 45.539062 22.011719 45.539062 21.019531 45.539062 20 C 44.761719 20.660156 43.984375 21.320312 43.183594 22 C 43.003906 21.214844 42.824219 20.433594 42.640625 19.625 C 41.792969 16.828125 41.792969 16.828125 39.746094 15.75 C 38.726562 15.378906 38.726562 15.378906 37.6875 15 C 37.167969 14.753906 36.648438 14.503906 36.117188 14.25 C 33.800781 13.882812 32.59375 14.4375 30.621094 16 C 29.914062 19.050781 29.914062 19.050781 29.835938 22 C 28.539062 22.328125 27.242188 22.660156 25.910156 23 C 25.910156 23.988281 25.910156 24.980469 25.910156 26 C 25.132812 26.328125 24.355469 26.660156 23.554688 27 C 25.875 18.882812 29.871094 12.089844 35.332031 7 Z M 35.332031 7 "/>
<path style=" stroke:none;fill-rule:nonzero;fill:rgb(52.156863%,5.882353%,12.156863%);fill-opacity:1;" d="M 41.613281 203 C 42.390625 203.328125 43.167969 203.660156 43.96875 204 C 43.96875 204.660156 43.96875 205.320312 43.96875 206 C 44.484375 206.328125 45.003906 206.660156 45.539062 207 C 45.796875 206.339844 46.054688 205.679688 46.324219 205 C 45.871094 209.753906 44.320312 212.96875 42.398438 217 C 38.570312 215.25 38.570312 215.25 37.6875 213 C 37.167969 213 36.648438 213 36.117188 213 C 36.375 215.640625 36.632812 218.28125 36.902344 221 C 36.382812 221 35.863281 221 35.332031 221 C 35.070312 216.710938 34.8125 212.421875 34.546875 208 C 35.324219 208.328125 36.101562 208.660156 36.902344 209 C 36.902344 209.660156 36.902344 210.320312 36.902344 211 C 37.417969 211 37.9375 211 38.472656 211 C 38.699219 210.050781 38.925781 209.101562 39.15625 208.125 C 40.042969 205 40.042969 205 41.613281 203 Z M 41.613281 203 "/>
<path style=" stroke:none;fill-rule:nonzero;fill:rgb(40.784314%,38.431373%,41.960784%);fill-opacity:1;" d="M 38.472656 172 C 38.195312 173.238281 37.921875 174.476562 37.636719 175.75 C 36.589844 181.589844 37.105469 187.109375 37.6875 193 C 36.910156 192.671875 36.132812 192.339844 35.332031 192 C 35.292969 191.386719 35.253906 190.769531 35.214844 190.136719 C 35.15625 189.328125 35.097656 188.519531 35.035156 187.6875 C 34.980469 186.886719 34.925781 186.085938 34.871094 185.261719 C 34.628906 182.726562 34.628906 182.726562 32.976562 180 C 32.484375 177.8125 32.484375 177.8125 32.191406 176 C 31.414062 176.660156 30.636719 177.320312 29.835938 178 C 30.589844 175.589844 31.132812 174.238281 32.828125 172.75 C 34.800781 171.890625 36.402344 171.855469 38.472656 172 Z M 38.472656 172 "/>
<path style=" stroke:none;fill-rule:nonzero;fill:rgb(35.294118%,37.647059%,53.333333%);fill-opacity:1;" d="M 35.332031 7 C 39.15625 8.75 39.15625 8.75 40.042969 11 C 38.097656 10.503906 38.097656 10.503906 36.117188 10 C 35.792969 10.804688 35.46875 11.609375 35.132812 12.4375 C 33.761719 15 33.761719 15 32.042969 15.8125 C 31.574219 15.875 31.105469 15.9375 30.621094 16 C 30.359375 17.980469 30.101562 19.960938 29.835938 22 C 28.539062 22.328125 27.242188 22.660156 25.910156 23 C 25.910156 23.988281 25.910156 24.980469 25.910156 26 C 25.132812 26.328125 24.355469 26.660156 23.554688 27 C 25.875 18.882812 29.871094 12.089844 35.332031 7 Z M 35.332031 7 "/>
<path style=" stroke:none;fill-rule:nonzero;fill:rgb(54.901961%,54.901961%,56.862745%);fill-opacity:1;" d="M 56.527344 169 C 59.621094 168.632812 60.898438 168.699219 63.496094 171 C 64.324219 171.988281 64.324219 171.988281 65.164062 173 C 64.90625 173.660156 64.648438 174.320312 64.378906 175 C 63.601562 174.339844 62.824219 173.679688 62.023438 173 C 60.328125 174.722656 59.71875 175.574219 59.402344 178.359375 C 59.414062 179.265625 59.425781 180.171875 59.4375 181.105469 C 59.445312 182.089844 59.453125 183.070312 59.460938 184.085938 C 59.492188 185.621094 59.492188 185.621094 59.523438 187.1875 C 59.53125 188.222656 59.542969 189.257812 59.554688 190.328125 C 59.582031 192.882812 59.621094 195.441406 59.667969 198 C 58.890625 198.328125 58.113281 198.660156 57.3125 199 C 57.398438 197.878906 57.480469 196.753906 57.570312 195.597656 C 58.121094 187.199219 58.277344 180.933594 55.742188 173 C 56.0625 170.769531 56.0625 170.769531 56.527344 169 Z M 56.527344 169 "/>
<path style=" stroke:none;fill-rule:nonzero;fill:rgb(63.137255%,18.823529%,24.313725%);fill-opacity:1;" d="M 32.976562 208 C 33.234375 208.660156 33.492188 209.320312 33.761719 210 C 34.277344 210 34.796875 210 35.332031 210 C 35.332031 213.628906 35.332031 217.261719 35.332031 221 C 36.441406 219.816406 36.441406 219.816406 36.164062 216.4375 C 36.148438 215.304688 36.132812 214.167969 36.117188 213 C 36.894531 212.671875 37.671875 212.339844 38.472656 212 C 39.519531 214 40.566406 216 41.613281 218 C 39.03125 220.914062 37.214844 222.496094 33.761719 223 C 33.777344 221.824219 33.792969 220.648438 33.808594 219.4375 C 33.816406 215.527344 33.480469 211.855469 32.976562 208 Z M 32.976562 208 "/>
<path style=" stroke:none;fill-rule:nonzero;fill:rgb(36.078431%,7.843137%,14.901961%);fill-opacity:1;" d="M 34.546875 191 C 36.078125 191.710938 36.078125 191.710938 37.6875 193 C 38.164062 195.164062 38.164062 195.164062 38.273438 197.625 C 38.320312 198.441406 38.363281 199.257812 38.410156 200.101562 C 38.441406 201.042969 38.441406 201.042969 38.472656 202 C 38.003906 201.683594 37.539062 201.367188 37.058594 201.039062 C 34.941406 199.765625 32.929688 199.402344 30.621094 199 C 30.621094 197.019531 30.621094 195.039062 30.621094 193 C 31.65625 193 32.691406 193 33.761719 193 C 34.019531 192.339844 34.277344 191.679688 34.546875 191 Z M 34.546875 191 "/>
<path style=" stroke:none;fill-rule:nonzero;fill:rgb(61.176471%,33.72549%,38.039216%);fill-opacity:1;" d="M 61.238281 213 C 62.015625 213.660156 62.792969 214.320312 63.59375 215 C 62.402344 220.40625 59.453125 223.984375 56.527344 228 C 55.75 226.679688 54.972656 225.359375 54.171875 224 C 54.949219 223.671875 55.726562 223.339844 56.527344 223 C 56.789062 223.328125 57.046875 223.660156 57.3125 224 C 57.234375 222.925781 57.152344 221.855469 57.070312 220.75 C 57.3125 217 57.3125 217 59.277344 214.5625 C 60.25 213.789062 60.25 213.789062 61.238281 213 Z M 61.238281 213 "/>
<path style=" stroke:none;fill-rule:nonzero;fill:rgb(78.039216%,61.568627%,63.137255%);fill-opacity:1;" d="M 49.460938 206 C 49.722656 206 49.980469 206 50.246094 206 C 50.402344 209.292969 50.546875 212.582031 50.691406 215.875 C 50.734375 216.8125 50.777344 217.75 50.824219 218.714844 C 50.859375 219.609375 50.898438 220.507812 50.9375 221.429688 C 50.992188 222.671875 50.992188 222.671875 51.050781 223.9375 C 51.03125 226 51.03125 226 50.246094 228 C 50.214844 230.332031 50.214844 232.667969 50.246094 235 C 50.765625 235 51.285156 235 51.816406 235 C 51.816406 235.660156 51.816406 236.320312 51.816406 237 C 50.296875 236.6875 50.296875 236.6875 48.675781 236 C 46.933594 229.339844 48.066406 221.859375 48.675781 215 C 48.789062 213.695312 48.789062 213.695312 48.90625 212.363281 C 49.085938 210.242188 49.273438 208.121094 49.460938 206 Z M 49.460938 206 "/>
<path style=" stroke:none;fill-rule:nonzero;fill:rgb(48.627451%,49.803922%,58.431373%);fill-opacity:1;" d="M 33.761719 64 C 34.796875 64.660156 35.832031 65.320312 36.902344 66 C 36.171875 66.578125 35.445312 67.15625 34.691406 67.75 C 31.8125 70.339844 30.230469 72.21875 29.261719 76.578125 C 29.144531 77.460938 29.023438 78.339844 28.902344 79.25 C 28.714844 80.589844 28.714844 80.589844 28.523438 81.953125 C 28.4375 82.628906 28.351562 83.304688 28.265625 84 C 28.003906 84 27.746094 84 27.480469 84 C 27.21875 80.371094 26.960938 76.738281 26.695312 73 C 27.472656 73 28.25 73 29.050781 73 C 29.050781 71.351562 29.050781 69.699219 29.050781 68 C 29.566406 67.671875 30.085938 67.339844 30.621094 67 C 30.359375 66.339844 30.101562 65.679688 29.835938 65 C 31.128906 65 32.425781 65 33.761719 65 C 33.761719 64.671875 33.761719 64.339844 33.761719 64 Z M 33.761719 64 "/>
<path style=" stroke:none;fill-rule:nonzero;fill:rgb(51.764706%,52.156863%,60.784314%);fill-opacity:1;" d="M 64.378906 55 C 66.738281 58.457031 67.796875 62.273438 68.894531 66.5625 C 69.078125 67.234375 69.261719 67.90625 69.449219 68.601562 C 70.757812 73.625 70.757812 73.625 69.875 77 C 69.097656 76.339844 68.320312 75.679688 67.519531 75 C 67.519531 73 67.519531 71 67.519531 69 C 66.421875 65.699219 66.421875 65.699219 65.164062 63 C 64.90625 63 64.648438 63 64.378906 63 C 64.378906 60.359375 64.378906 57.71875 64.378906 55 Z M 64.378906 55 "/>
<path style=" stroke:none;fill-rule:nonzero;fill:rgb(32.54902%,35.294118%,50.588235%);fill-opacity:1;" d="M 58.097656 39 C 60.179688 41.371094 61.355469 43.835938 62.613281 47 C 62.964844 47.867188 63.316406 48.734375 63.679688 49.625 C 64.378906 52 64.378906 52 63.59375 55 C 63.515625 54.359375 63.433594 53.722656 63.351562 53.0625 C 63.171875 52.382812 62.992188 51.703125 62.808594 51 C 62.03125 50.671875 61.253906 50.339844 60.453125 50 C 60.453125 49.339844 60.453125 48.679688 60.453125 48 C 59.9375 48 59.417969 48 58.882812 48 C 58.882812 48.988281 58.882812 49.980469 58.882812 51 C 58.367188 51 57.847656 51 57.3125 51 C 57.214844 48.125 57.214844 48.125 57.3125 45 C 57.832031 44.339844 58.351562 43.679688 58.882812 43 C 58.632812 40.890625 58.632812 40.890625 58.097656 39 Z M 58.097656 39 "/>
<path style=" stroke:none;fill-rule:nonzero;fill:rgb(30.196078%,32.54902%,50.588235%);fill-opacity:1;" d="M 50.246094 24 C 52.914062 27.125 54.648438 29.566406 55.742188 34 C 54.964844 33.671875 54.1875 33.339844 53.386719 33 C 53.128906 33.988281 52.871094 34.980469 52.601562 36 C 52.085938 35.671875 51.566406 35.339844 51.03125 35 C 51.292969 33.679688 51.550781 32.359375 51.816406 31 C 50.78125 31 49.746094 31 48.675781 31 C 48.417969 29.351562 48.160156 27.699219 47.890625 26 C 48.667969 26 49.445312 26 50.246094 26 C 50.246094 25.339844 50.246094 24.679688 50.246094 24 Z M 50.246094 24 "/>
<path style=" stroke:none;fill-rule:nonzero;fill:rgb(60%,55.686275%,58.039216%);fill-opacity:1;" d="M 45.539062 184 C 48.292969 184.300781 49.53125 185.753906 51.277344 188.375 C 51.695312 188.980469 52.113281 189.585938 52.546875 190.210938 C 52.824219 190.800781 53.101562 191.390625 53.386719 192 C 53.128906 192.988281 52.871094 193.980469 52.601562 195 C 52.070312 193.761719 52.070312 193.761719 51.523438 192.5 C 51.101562 191.675781 50.683594 190.851562 50.246094 190 C 49.730469 190 49.210938 190 48.675781 190 C 48.675781 189.011719 48.675781 188.019531 48.675781 187 C 47.382812 187.328125 46.085938 187.660156 44.753906 188 C 45.53125 188.988281 46.304688 189.980469 47.109375 191 C 46.070312 191 45.035156 191 43.96875 191 C 43.707031 191.660156 43.449219 192.320312 43.183594 193 C 43.769531 186.25 43.769531 186.25 45.539062 184 Z M 45.539062 184 "/>
<path style=" stroke:none;fill-rule:nonzero;fill:rgb(60.784314%,33.333333%,37.647059%);fill-opacity:1;" d="M 45.539062 205 C 46.324219 208 46.324219 208 45.539062 210.261719 C 45.167969 211.0625 44.792969 211.863281 44.410156 212.6875 C 43.851562 213.898438 43.851562 213.898438 43.28125 215.136719 C 42.992188 215.75 42.699219 216.367188 42.398438 217 C 40.828125 213.25 40.828125 213.25 40.828125 211 C 41.34375 211 41.863281 211 42.398438 211 C 41.570312 209.84375 41.570312 209.84375 40.042969 209 C 40.042969 208.339844 40.042969 207.679688 40.042969 207 C 43.769531 205.875 43.769531 205.875 45.539062 207 C 45.539062 206.339844 45.539062 205.679688 45.539062 205 Z M 45.539062 205 "/>
<path style=" stroke:none;fill-rule:nonzero;fill:rgb(20%,9.019608%,16.078431%);fill-opacity:1;" d="M 32.191406 175 C 32.800781 177.332031 33.308594 179.613281 33.761719 182 C 33.242188 182 32.722656 182 32.191406 182 C 31.929688 183.320312 31.671875 184.640625 31.40625 186 C 30.886719 186 30.367188 186 29.835938 186 C 29.574219 186.660156 29.316406 187.320312 29.050781 188 C 29.117188 186.394531 29.203125 184.789062 29.296875 183.1875 C 29.339844 182.292969 29.386719 181.402344 29.433594 180.480469 C 29.882812 177.695312 30.480469 176.757812 32.191406 175 Z M 32.191406 175 "/>
<path style=" stroke:none;fill-rule:nonzero;fill:rgb(58.431373%,59.607843%,67.843137%);fill-opacity:1;" d="M 18.058594 41 C 18.316406 41 18.574219 41 18.84375 41 C 19.097656 46.378906 18.417969 49.28125 16.488281 54 C 16.359375 55.21875 16.226562 56.433594 16.09375 57.6875 C 15.675781 61.226562 15.34375 61.761719 13.347656 64 C 14.285156 56.003906 15.910156 48.601562 18.058594 41 Z M 18.058594 41 "/>
<path style=" stroke:none;fill-rule:nonzero;fill:rgb(36.470588%,38.431373%,52.54902%);fill-opacity:1;" d="M 22.769531 27 C 23.285156 27.988281 23.804688 28.980469 24.339844 30 C 23.976562 32.261719 23.976562 32.261719 23.257812 34.6875 C 23.027344 35.496094 22.792969 36.304688 22.554688 37.136719 C 22.367188 37.75 22.175781 38.367188 21.984375 39 C 21.207031 39 20.429688 39 19.628906 39 C 19.367188 39.660156 19.109375 40.320312 18.84375 41 C 19.355469 35.929688 21.085938 31.582031 22.769531 27 Z M 22.769531 27 "/>
<path style=" stroke:none;fill-rule:nonzero;fill:rgb(67.058824%,60.392157%,61.960784%);fill-opacity:1;" d="M 29.050781 178 C 29.960938 181.550781 29.773438 184.558594 29.492188 188.25 C 29.371094 189.867188 29.371094 189.867188 29.25 191.515625 C 29.183594 192.335938 29.117188 193.15625 29.050781 194 C 29.828125 194.328125 30.605469 194.660156 31.40625 195 C 31.144531 196.648438 30.886719 198.300781 30.621094 200 C 27.175781 193.417969 27.1875 187.589844 28.265625 180 C 28.523438 179.339844 28.78125 178.679688 29.050781 178 Z M 29.050781 178 "/>
<path style=" stroke:none;fill-rule:nonzero;fill:rgb(38.823529%,40.392157%,49.803922%);fill-opacity:1;" d="M 51.816406 72 C 53.371094 72.660156 54.925781 73.320312 56.527344 74 C 55.15625 81.625 55.15625 81.625 53.386719 85 C 52.871094 80.710938 52.351562 76.421875 51.816406 72 Z M 51.816406 72 "/>
<path style=" stroke:none;fill-rule:nonzero;fill:rgb(59.607843%,47.058824%,50.196078%);fill-opacity:1;" d="M 53.386719 195 C 55.066406 197.136719 55.292969 198.132812 55.742188 201 C 56.261719 200.339844 56.78125 199.679688 57.3125 199 C 57.3125 199.988281 57.3125 200.980469 57.3125 202 C 57.832031 202.328125 58.351562 202.660156 58.882812 203 C 58.105469 203.328125 57.328125 203.660156 56.527344 204 C 56.527344 204.988281 56.527344 205.980469 56.527344 207 C 55.75 207.328125 54.972656 207.660156 54.171875 208 C 53.136719 205.355469 53.3125 203.324219 53.339844 200.375 C 53.347656 199.371094 53.355469 198.371094 53.359375 197.335938 C 53.371094 196.566406 53.378906 195.792969 53.386719 195 Z M 53.386719 195 "/>
<path style=" stroke:none;fill-rule:nonzero;fill:rgb(46.27451%,6.666667%,13.72549%);fill-opacity:1;" d="M 41.613281 203 C 42.390625 203.328125 43.167969 203.660156 43.96875 204 C 43.707031 204.988281 43.449219 205.980469 43.183594 207 C 42.144531 207 41.109375 207 40.042969 207 C 40.558594 205.679688 41.078125 204.359375 41.613281 203 Z M 39.257812 207 C 39.773438 207.660156 40.292969 208.320312 40.828125 209 C 41.605469 209 42.382812 209 43.183594 209 C 42.921875 209.660156 42.664062 210.320312 42.398438 211 C 41.878906 211 41.359375 211 40.828125 211 C 41.085938 212.980469 41.34375 214.960938 41.613281 217 C 40.042969 215 40.042969 215 39.941406 212.375 C 39.976562 211.589844 40.007812 210.808594 40.042969 210 C 39.523438 209.671875 39.003906 209.339844 38.472656 209 C 38.730469 208.339844 38.988281 207.679688 39.257812 207 Z M 39.257812 207 "/>
<path style=" stroke:none;fill-rule:nonzero;fill:rgb(7.45098%,10.980392%,32.156863%);fill-opacity:1;" d="M 58.882812 48 C 59.402344 48 59.921875 48 60.453125 48 C 62.503906 50.847656 63.929688 53.128906 64.378906 57 C 63.863281 57 63.34375 57 62.808594 57 C 62.550781 56.339844 62.292969 55.679688 62.023438 55 C 61.246094 55 60.46875 55 59.667969 55 C 59.667969 54.339844 59.667969 53.679688 59.667969 53 C 59.152344 53 58.632812 53 58.097656 53 C 58.359375 51.351562 58.617188 49.699219 58.882812 48 Z M 58.882812 48 "/>
<path style=" stroke:none;fill-rule:nonzero;fill:rgb(31.372549%,32.156863%,36.862745%);fill-opacity:1;" d="M 19.628906 183 C 19.628906 184.980469 19.628906 186.960938 19.628906 189 C 18.332031 189.328125 17.039062 189.660156 15.703125 190 C 15.445312 188.679688 15.183594 187.359375 14.917969 186 C 18.746094 183 18.746094 183 19.628906 183 Z M 19.628906 183 "/>
<path style=" stroke:none;fill-rule:nonzero;fill:rgb(77.254902%,61.960784%,63.529412%);fill-opacity:1;" d="M 32.976562 208 C 33.234375 208.660156 33.492188 209.320312 33.761719 210 C 34.277344 210 34.796875 210 35.332031 210 C 35.332031 213.628906 35.332031 217.261719 35.332031 221 C 36.109375 221.328125 36.886719 221.660156 37.6875 222 C 36.390625 222.328125 35.09375 222.660156 33.761719 223 C 33.777344 221.824219 33.792969 220.648438 33.808594 219.4375 C 33.816406 215.527344 33.480469 211.855469 32.976562 208 Z M 32.976562 208 "/>
<path style=" stroke:none;fill-rule:nonzero;fill:rgb(34.901961%,36.470588%,53.333333%);fill-opacity:1;" d="M 29.050781 17 C 29.566406 17.328125 30.085938 17.660156 30.621094 18 C 30.359375 19.320312 30.101562 20.640625 29.835938 22 C 28.539062 22.328125 27.242188 22.660156 25.910156 23 C 25.910156 23.988281 25.910156 24.980469 25.910156 26 C 25.132812 26.328125 24.355469 26.660156 23.554688 27 C 24.648438 22.566406 26.382812 20.125 29.050781 17 Z M 29.050781 17 "/>
<path style=" stroke:none;fill-rule:nonzero;fill:rgb(34.117647%,7.45098%,14.901961%);fill-opacity:1;" d="M 51.03125 201 C 51.808594 201 52.585938 201 53.386719 201 C 53.648438 202.648438 53.90625 204.300781 54.171875 206 C 53.394531 206 52.617188 206 51.816406 206 C 51.558594 206.988281 51.300781 207.980469 51.03125 209 C 50.773438 209 50.515625 209 50.246094 209 C 50.148438 203.25 50.148438 203.25 51.03125 201 Z M 51.03125 201 "/>
<path style=" stroke:none;fill-rule:nonzero;fill:rgb(45.882353%,27.843137%,32.941176%);fill-opacity:1;" d="M 51.03125 198 C 51.550781 199.320312 52.070312 200.640625 52.601562 202 C 51.824219 202.496094 51.824219 202.496094 51.03125 203 C 50.773438 203.988281 50.515625 204.980469 50.246094 206 C 49.730469 206 49.210938 206 48.675781 206 C 48.675781 205.339844 48.675781 204.679688 48.675781 204 C 47.902344 204.328125 47.125 204.660156 46.324219 205 C 46.582031 203.679688 46.839844 202.359375 47.109375 201 C 47.609375 200.875 48.113281 200.753906 48.628906 200.625 C 49.429688 200.316406 49.429688 200.316406 50.246094 200 C 50.507812 199.339844 50.765625 198.679688 51.03125 198 Z M 51.03125 198 "/>
<path style=" stroke:none;fill-rule:nonzero;fill:rgb(42.352941%,43.921569%,58.823529%);fill-opacity:1;" d="M 44.753906 16 C 46.566406 17.980469 48.378906 19.960938 50.246094 22 C 49.988281 22.660156 49.730469 23.320312 49.460938 24 C 47.109375 24 47.109375 24 45.539062 23 C 45.539062 22.011719 45.539062 21.019531 45.539062 20 C 45.019531 19.671875 44.5 19.339844 43.96875 19 C 44.226562 18.011719 44.484375 17.019531 44.753906 16 Z M 44.753906 16 "/>
<path style=" stroke:none;fill-rule:nonzero;fill:rgb(69.411765%,63.921569%,65.490196%);fill-opacity:1;" d="M 36.117188 177 C 36.886719 180.402344 37.132812 183.722656 37.34375 187.25 C 37.410156 188.328125 37.472656 189.40625 37.542969 190.515625 C 37.589844 191.335938 37.636719 192.15625 37.6875 193 C 36.910156 192.671875 36.132812 192.339844 35.332031 192 C 35.308594 190.0625 35.292969 188.125 35.28125 186.1875 C 35.273438 185.109375 35.261719 184.03125 35.253906 182.917969 C 35.332031 180 35.332031 180 36.117188 177 Z M 36.117188 177 "/>
<path style=" stroke:none;fill-rule:nonzero;fill:rgb(9.803922%,10.588235%,17.647059%);fill-opacity:1;" d="M 62.023438 172 C 62.800781 172.988281 63.578125 173.980469 64.378906 175 C 63.34375 175.328125 62.308594 175.660156 61.238281 176 C 61.238281 176.660156 61.238281 177.320312 61.238281 178 C 60.722656 178 60.203125 178 59.667969 178 C 59.410156 178.660156 59.152344 179.320312 58.882812 180 C 59.128906 177.125 59.128906 177.125 59.667969 174 C 60.445312 173.339844 61.222656 172.679688 62.023438 172 Z M 62.023438 172 "/>
<path style=" stroke:none;fill-rule:nonzero;fill:rgb(56.862745%,57.647059%,63.529412%);fill-opacity:1;" d="M 32.191406 93 C 32.984375 93.472656 33.777344 93.949219 34.59375 94.4375 C 37.417969 95.992188 40.113281 96.601562 43.183594 97 C 43.183594 97.328125 43.183594 97.660156 43.183594 98 C 36.015625 99.601562 36.015625 99.601562 33.269531 97.1875 C 32.191406 95 32.191406 95 32.191406 93 Z M 32.191406 93 "/>
<path style=" stroke:none;fill-rule:nonzero;fill:rgb(69.019608%,69.019608%,70.196078%);fill-opacity:1;" d="M 83.222656 174 C 84.007812 177 84.007812 177 83.125 179.625 C 81.652344 182 81.652344 182 79.542969 182.8125 C 78.945312 182.875 78.34375 182.9375 77.726562 183 C 77.46875 182.339844 77.210938 181.679688 76.941406 181 C 77.6875 180.585938 78.433594 180.175781 79.199219 179.75 C 81.660156 177.996094 82.332031 177.292969 83.222656 174 Z M 83.222656 174 "/>
<path style=" stroke:none;fill-rule:nonzero;fill:rgb(43.137255%,43.529412%,48.235294%);fill-opacity:1;" d="M 84.007812 130 C 86.285156 132.394531 86.757812 134.3125 87.148438 138 C 85.089844 136.953125 84.171875 136.351562 83.027344 133.875 C 82.832031 133.257812 82.636719 132.636719 82.4375 132 C 82.957031 132 83.472656 132 84.007812 132 C 84.007812 131.339844 84.007812 130.679688 84.007812 130 Z M 84.007812 130 "/>
<path style=" stroke:none;fill-rule:nonzero;fill:rgb(42.745098%,43.529412%,47.843137%);fill-opacity:1;" d="M 84.792969 165 C 85.3125 165.660156 85.828125 166.320312 86.363281 167 C 86.167969 170.0625 86.167969 170.0625 85.578125 173 C 84.800781 173.496094 84.800781 173.496094 84.007812 174 C 83.75 171.359375 83.488281 168.71875 83.222656 166 C 83.742188 165.671875 84.257812 165.339844 84.792969 165 Z M 84.792969 165 "/>
<path style=" stroke:none;fill-rule:nonzero;fill:rgb(44.705882%,45.098039%,48.627451%);fill-opacity:1;" d="M 32.191406 163 C 31.257812 166.375 30.402344 168.648438 28.265625 171 C 27.726562 168.6875 27.726562 168.6875 27.480469 166 C 28.984375 163.21875 29.476562 163 32.191406 163 Z M 32.191406 163 "/>
<path style=" stroke:none;fill-rule:nonzero;fill:rgb(6.666667%,10.196078%,30.980392%);fill-opacity:1;" d="M 32.976562 64 C 32.199219 64.660156 31.421875 65.320312 30.621094 66 C 30.878906 66.660156 31.136719 67.320312 31.40625 68 C 30.109375 68 28.8125 68 27.480469 68 C 27.726562 66.0625 27.726562 66.0625 28.265625 64 C 30.621094 63 30.621094 63 32.976562 64 Z M 32.976562 64 "/>
<path style=" stroke:none;fill-rule:nonzero;fill:rgb(45.882353%,6.27451%,12.54902%);fill-opacity:1;" d="M 50.246094 213 C 50.765625 213 51.285156 213 51.816406 213 C 52.359375 215.75 52.359375 215.75 52.601562 219 C 51.824219 220.320312 51.046875 221.640625 50.246094 223 C 50.246094 219.699219 50.246094 216.398438 50.246094 213 Z M 50.246094 213 "/>
<path style=" stroke:none;fill-rule:nonzero;fill:rgb(33.333333%,7.45098%,14.901961%);fill-opacity:1;" d="M 43.96875 196 C 44.484375 197.320312 45.003906 198.640625 45.539062 200 C 43.183594 202 43.183594 202 40.042969 202 C 40.042969 201.339844 40.042969 200.679688 40.042969 200 C 40.820312 200 41.597656 200 42.398438 200 C 42.914062 198.679688 43.433594 197.359375 43.96875 196 Z M 43.96875 196 "/>
<path style=" stroke:none;fill-rule:nonzero;fill:rgb(10.588235%,11.764706%,18.823529%);fill-opacity:1;" d="M 79.296875 176 C 80.332031 176 81.371094 176 82.4375 176 C 82.179688 176.988281 81.917969 177.980469 81.652344 179 C 79.640625 180.1875 79.640625 180.1875 77.726562 181 C 78.414062 177.125 78.414062 177.125 79.296875 176 Z M 79.296875 176 "/>
<path style=" stroke:none;fill-rule:nonzero;fill:rgb(7.45098%,10.588235%,29.411765%);fill-opacity:1;" d="M 18.058594 48 C 18.597656 49.625 18.597656 49.625 18.84375 52 C 17.714844 55.25 17.714844 55.25 16.488281 58 C 15.949219 56.375 15.949219 56.375 15.703125 54 C 16.832031 50.75 16.832031 50.75 18.058594 48 Z M 18.058594 48 "/>
<path style=" stroke:none;fill-rule:nonzero;fill:rgb(41.176471%,41.960784%,52.54902%);fill-opacity:1;" d="M 68.304688 70 C 68.824219 70.328125 69.34375 70.660156 69.875 71 C 70.367188 74.0625 70.367188 74.0625 70.660156 77 C 69.625 76.339844 68.589844 75.679688 67.519531 75 C 67.78125 73.351562 68.039062 71.699219 68.304688 70 Z M 68.304688 70 "/>
<path style=" stroke:none;fill-rule:nonzero;fill:rgb(7.45098%,10.588235%,35.294118%);fill-opacity:1;" d="M 47.890625 22 C 48.929688 23.320312 49.964844 24.640625 51.03125 26 C 49.609375 26.6875 49.609375 26.6875 47.890625 27 C 46.519531 25.5625 46.519531 25.5625 45.539062 24 C 46.316406 23.339844 47.089844 22.679688 47.890625 22 Z M 47.890625 22 "/>
<path style=" stroke:none;fill-rule:nonzero;fill:rgb(63.921569%,65.098039%,71.764706%);fill-opacity:1;" d="M 58.097656 39 C 60.527344 41.53125 61.167969 44.222656 62.023438 48 C 60.503906 47.4375 60.503906 47.4375 58.882812 46 C 58.296875 42.375 58.296875 42.375 58.097656 39 Z M 58.097656 39 "/>
<path style=" stroke:none;fill-rule:nonzero;fill:rgb(43.921569%,45.098039%,58.039216%);fill-opacity:1;" d="M 22.769531 27 C 23.285156 27.988281 23.804688 28.980469 24.339844 30 C 23.652344 32.6875 23.652344 32.6875 22.769531 35 C 22.25 34.671875 21.730469 34.339844 21.199219 34 C 21.886719 29.25 21.886719 29.25 22.769531 27 Z M 22.769531 27 "/>
<path style=" stroke:none;fill-rule:nonzero;fill:rgb(53.333333%,54.901961%,66.27451%);fill-opacity:1;" d="M 31.40625 11 C 31.664062 11.660156 31.921875 12.320312 32.191406 13 C 31.457031 15.714844 30.914062 16.78125 28.953125 18.25 C 28.464844 18.496094 27.980469 18.746094 27.480469 19 C 28.410156 15.625 29.265625 13.351562 31.40625 11 Z M 31.40625 11 "/>
</g>
</svg>
